<svg width="64" height="64" viewBox="0 0 64 64" fill="none" xmlns="http://www.w3.org/2000/svg">
<path d="M31.5 2C15.2076 2 2 15.2076 2 31.5C2 42.5096 8.0311 52.1106 16.9697 57.1792L17.1056 56.1261L30.0876 47.2983C30.1805 47.2351 30.2201 47.1179 30.1846 47.0113L29.0556 43.6243C29.0173 43.5092 28.9021 43.438 28.7819 43.4552L24.6521 44.0451C24.615 44.0504 24.5796 44.064 24.5484 44.0848L23.8311 44.563C23.5998 44.7172 23.7534 45.0773 24.0248 45.0169L28.0562 44.1211C28.213 44.0862 28.3617 44.2056 28.3617 44.3662V47.0292C28.3617 47.1279 28.3038 47.2176 28.2137 47.2581L17.6314 52.0511C17.6611 51.7613 17.5928 51.4371 17.4309 51.1941L16.7686 50.2008C16.5584 49.8854 16.5019 49.4919 16.6149 49.1301L19.4375 40.0977C19.526 39.8148 19.7117 39.5723 19.9618 39.4131L26.1854 35.4526C26.3773 35.3305 26.5325 35.1585 26.6342 34.955L26.7806 34.6622C26.9821 34.2593 26.9522 33.7793 26.7023 33.4045L24.979 30.8195C24.7404 30.4616 24.7016 30.0064 24.8763 29.6134L26.8184 25.2436C26.9971 24.8415 27.3733 24.5624 27.8099 24.5078L31.1065 24.0957C31.7003 24.0215 32.2639 24.3767 32.4531 24.9444L33.7895 28.9536C33.927 29.3661 33.8413 29.8202 33.563 30.1542L31.32 32.8458C31.0417 33.1797 30.956 33.6339 31.0935 34.0464L31.142 34.1919C31.3454 34.8022 31.9772 35.1599 32.6052 35.0204L36.7921 34.0899C37.0251 34.0381 37.2386 33.921 37.4074 33.7522L40.0876 31.0719C40.2191 30.9405 40.3197 30.7815 40.3822 30.6065L43.0745 23.0679C43.0853 23.0377 43.0973 23.0083 43.1105 22.9797L42.0832 22.4664C40.7741 21.8118 40.0199 20.4028 40.2014 18.9505L40.4049 17.3151C40.5745 15.9586 41.529 14.8298 42.8383 14.4367L45.0829 13.7637C46.9416 13.2064 48.8948 14.2895 49.4055 16.1616L50.1349 18.8365C50.5256 20.2699 49.9552 21.793 48.719 22.6171L47.6708 23.3159C46.9006 23.8294 45.969 24.0045 45.085 23.8291L43.3562 32.4617C43.3176 32.6547 43.2341 32.836 43.1124 32.9908L36.618 41.2564C36.4711 41.4433 36.3804 41.6681 36.3562 41.9046L34.4223 60.8571C49.3429 59.3898 61 46.8062 61 31.5C61 15.2076 47.7924 2 31.5 2Z" fill="#9C3FFF"/>
<path d="M47.5887 16.6568C47.3565 15.806 46.4683 15.3136 45.6236 15.567L43.3802 16.24C42.7851 16.4186 42.3517 16.9316 42.2744 17.5481L42.0697 19.1834C41.9872 19.8434 42.3294 20.4843 42.9241 20.782L45.0535 21.8473C45.5572 22.0991 46.1578 22.0615 46.6263 21.7492L47.6745 21.0504C48.2364 20.6758 48.4957 19.9833 48.3181 19.3317L47.5887 16.6568Z" fill="#9C3FFF"/>
</svg>
