<svg version="1.1" id="Layer_1" xmlns="http://www.w3.org/2000/svg" xmlns:xlink="http://www.w3.org/1999/xlink" x="0px" y="0px"
	 width="100%" viewBox="0 0 1024 1024" enable-background="new 0 0 1024 1024" xml:space="preserve">
<path fill="#000000" opacity="1.000000" stroke="none" 
	d="
M718.451294,790.404541 
	C767.112915,759.789551 809.146851,722.641663 841.251282,674.962891 
	C848.791077,663.765320 855.637268,652.145996 861.921204,640.184448 
	C863.682739,636.831238 863.382874,634.680786 860.665161,631.950012 
	C840.453247,611.641968 816.138184,597.649353 790.218750,586.262268 
	C763.137268,574.364807 734.755310,566.519104 705.634705,561.697571 
	C688.097412,558.793884 670.365356,556.980042 652.503113,557.081055 
	C648.236511,557.105225 646.533813,558.789062 646.322510,562.949158 
	C645.687439,575.452393 645.630188,575.369324 657.781555,578.830017 
	C689.650574,587.906189 720.347168,599.650696 747.594666,619.036682 
	C763.292603,630.205383 777.384338,643.123413 789.321838,658.297058 
	C790.925476,660.335571 793.036804,662.142883 793.427185,664.988220 
	C791.909363,667.098816 789.724304,666.261169 787.878784,666.262390 
	C731.215881,666.299622 674.552856,666.336975 617.890442,666.163208 
	C613.245422,666.148987 610.415283,667.583252 607.458618,671.179688 
	C585.383911,698.031006 558.003845,718.010071 526.562012,732.582153 
	C524.597839,733.492493 522.487854,734.199036 520.719543,735.402710 
	C510.957703,742.047913 500.997925,740.541321 491.092926,736.089600 
	C456.278961,720.442261 425.337311,699.537598 401.338379,669.337280 
	C391.018707,656.351013 383.017578,641.937866 375.791962,627.084534 
	C374.003754,623.408630 372.074860,622.148193 367.667236,623.002014 
	C355.112854,625.433960 342.935852,623.784790 331.185760,618.381531 
	C312.002655,609.560303 292.323486,606.669617 272.285675,615.450378 
	C266.206909,618.114197 260.585022,621.834595 253.961563,623.200256 
	C239.424835,626.197632 225.600845,624.607605 212.407394,617.389038 
	C194.946625,607.835449 177.159531,607.975525 159.156708,616.171631 
	C155.174301,617.984680 154.117447,619.741089 156.052582,624.020691 
	C169.065277,652.798401 186.955475,678.355225 206.728363,702.801453 
	C238.197388,741.708252 276.909729,771.801453 319.742584,797.013672 
	C320.887909,797.687805 321.990051,798.436157 323.097565,799.172119 
	C323.205109,799.243591 323.208008,799.472534 323.355103,799.918091 
	C321.780762,801.691589 319.485504,801.179810 317.519745,801.221069 
	C309.689941,801.385315 301.854279,801.268677 294.024323,801.428955 
	C291.157715,801.487671 288.882050,800.346619 286.635925,798.856384 
	C239.932175,767.869202 199.001099,730.899414 168.086304,683.700928 
	C138.870926,639.096985 118.316566,590.889343 107.478111,538.516724 
	C100.528381,504.934875 97.128746,471.072998 98.878510,436.913910 
	C102.747856,361.376160 124.918335,291.598389 166.684158,228.274734 
	C200.288940,177.324509 243.734070,136.603882 295.817841,105.147896 
	C336.078979,80.832176 379.575195,64.587219 425.753937,55.528732 
	C449.615021,50.848114 473.659363,48.350124 497.980652,47.509422 
	C579.908752,44.677444 656.467285,63.764343 727.392822,104.395180 
	C774.799622,131.552902 814.554321,167.800781 847.160522,211.747025 
	C879.404785,255.205475 902.358887,303.091309 915.500427,355.612396 
	C920.301392,374.799622 923.387756,394.271149 925.531616,413.957245 
	C927.921143,435.899292 928.283936,457.907379 927.012512,479.797302 
	C924.836304,517.265625 917.376587,553.850891 905.121704,589.430847 
	C881.626038,657.646362 842.178040,715.050354 788.155396,762.584412 
	C772.496216,776.362854 755.258057,788.100342 738.096191,799.901489 
	C736.457703,801.028137 734.712646,802.175781 732.628235,802.183899 
	C722.507141,802.223267 712.345215,803.126038 700.959351,800.769287 
	C707.309998,797.014648 712.729370,793.810608 718.451294,790.404541 
M358.146606,328.631775 
	C363.760437,323.412384 369.574341,318.387573 374.912323,312.899841 
	C378.063721,309.660034 380.110931,310.101654 383.111145,313.021790 
	C395.288849,324.874512 407.670990,336.517059 419.960052,348.255676 
	C420.918549,349.171265 421.914398,350.125854 422.584656,351.246643 
	C423.569641,352.893677 423.564331,354.928223 421.287476,355.068787 
	C415.275391,355.440002 417.214813,359.717926 417.404083,362.796997 
	C417.667786,367.086761 421.312653,365.611053 423.626953,365.585114 
	C441.615692,365.383423 459.604584,365.084625 477.588074,364.612488 
	C481.328674,364.514282 483.691895,365.713562 485.868683,368.810059 
	C493.148773,379.166199 500.728149,389.312592 508.232758,399.509979 
	C512.070984,404.725433 511.651062,406.028503 505.322021,407.162323 
	C503.366272,407.512695 501.830505,407.641724 501.813934,410.270416 
	C501.751038,420.263092 501.590149,430.256531 501.316925,440.245605 
	C501.228516,443.476715 502.623169,444.389252 505.690002,444.830566 
	C520.985413,447.031525 536.188293,449.799866 551.235779,453.345673 
	C553.968872,453.989746 555.953613,453.255829 558.006470,451.399902 
	C562.451294,447.381653 566.917969,443.330109 571.768677,439.838104 
	C575.121155,437.424683 576.205933,434.741119 575.411133,430.898743 
	C575.110474,429.445099 574.888550,427.891144 575.070435,426.437927 
	C575.563965,422.493530 573.334167,421.084656 570.009460,420.477661 
	C564.289062,419.433228 558.553650,418.459259 552.859131,417.287720 
	C544.123352,415.490479 535.227661,414.394653 526.732910,411.882477 
	C527.005920,403.659271 528.257629,402.659180 535.415222,404.093567 
	C545.839233,406.182526 556.304932,408.065338 566.718933,410.201569 
	C576.457153,412.199219 576.428467,412.290588 579.916992,403.207458 
	C580.393799,401.966156 580.915039,400.720612 581.591614,399.581512 
	C583.338623,396.640167 582.408447,394.611511 579.661621,392.976013 
	C574.652710,389.993591 569.678711,386.951965 564.705017,383.910736 
	C557.065674,379.239594 549.438904,374.547913 541.928589,369.939697 
	C544.872192,361.576721 545.770508,361.260925 552.407593,365.295807 
	C562.797058,371.611847 573.264343,377.800232 583.626404,384.160583 
	C586.849304,386.138885 589.273987,386.305176 591.583679,382.770508 
	C593.301208,380.142120 595.376038,377.635437 597.718079,375.554443 
	C600.805115,372.811554 600.614197,370.795013 597.933594,367.743256 
	C589.139771,357.732025 580.614441,347.483032 572.091309,337.237793 
	C570.537720,335.370331 567.871277,333.361206 571.590393,330.725586 
	C574.484070,328.674957 576.553650,327.566193 579.461670,331.124084 
	C586.628174,339.892120 594.213745,348.319641 601.690186,356.831848 
	C608.856934,364.991394 608.889404,364.961700 618.153992,359.893005 
	C618.884705,359.493256 619.586365,358.964172 620.371033,358.751587 
	C625.569641,357.343292 625.336792,354.140930 623.674866,349.991943 
	C618.971008,338.248657 614.552185,326.391144 609.843811,314.649750 
	C608.536804,311.390350 608.851807,309.580322 612.416748,308.167450 
	C615.988892,306.751740 617.493652,307.887848 618.749329,311.135925 
	C622.469849,320.759857 626.425415,330.292572 630.228271,339.885132 
	C636.354248,355.337616 633.800110,352.000519 649.194397,350.205170 
	C653.293457,349.727142 654.792847,347.743011 654.733826,343.593414 
	C654.560913,331.430511 654.695374,319.262543 654.794556,307.097260 
	C654.809998,305.202667 654.143250,303.069977 655.873779,301.510101 
	C664.297546,301.645538 664.294250,301.645538 664.301453,309.957703 
	C664.309204,318.957153 664.326599,327.956604 664.334961,336.956055 
	C664.345886,348.673798 664.343994,348.673309 675.403442,351.159973 
	C676.052002,351.305756 676.726013,351.394318 677.338318,351.636017 
	C681.243164,353.177368 683.297852,351.847412 684.811157,347.897919 
	C689.456604,335.773987 694.588867,323.837036 699.275085,311.727997 
	C700.645386,308.187073 702.496521,308.254730 705.437256,309.406036 
	C708.389465,310.561890 709.762939,311.822784 708.312439,315.289368 
	C704.392029,324.658203 700.717346,334.132263 697.086304,343.618591 
	C695.505371,347.748749 693.517822,351.772705 692.763184,356.196045 
	C697.289307,358.865234 701.716736,361.192200 705.819641,363.994202 
	C708.623474,365.908997 710.224243,365.717041 712.378540,362.976898 
	C720.202637,353.025177 728.293457,343.283081 736.284546,333.462646 
	C741.271912,327.333557 742.741577,327.365753 748.172058,334.119781 
	C740.677612,343.508087 733.166382,353.037750 725.523132,362.460297 
	C716.872559,373.124512 716.904114,373.009064 726.156006,383.438904 
	C728.337524,385.898285 729.998474,386.333862 732.843567,384.600037 
	C743.369202,378.185486 754.009521,371.958374 764.635315,365.709442 
	C771.654663,361.581451 773.095154,362.204895 775.617859,370.505249 
	C765.701843,376.440338 755.631042,382.279419 745.776123,388.462585 
	C742.007996,390.826782 736.412781,392.064819 735.060669,396.106964 
	C733.709229,400.147522 737.942810,404.319092 738.945618,408.662720 
	C739.967285,413.088074 742.142944,413.593292 746.151184,412.079834 
	C771.157654,402.638123 796.353882,404.264252 821.645203,411.016144 
	C852.811951,419.336487 879.225830,435.884094 902.830688,457.408203 
	C904.351440,458.794830 905.545288,460.807526 907.858887,460.956238 
	C908.819763,460.287262 908.678284,459.393250 908.684509,458.596924 
	C908.847717,437.765472 907.500854,417.007690 904.304810,396.444641 
	C899.718201,366.934265 891.756409,338.291321 880.633667,310.547729 
	C856.390259,250.077057 819.071472,199.190704 768.960632,157.571808 
	C736.891602,130.937286 701.525879,110.006447 662.688904,94.891594 
	C620.199890,78.355438 576.305359,68.203300 530.674011,66.454636 
	C500.838043,65.311279 471.156372,67.149048 441.653137,72.173096 
	C390.621307,80.863213 343.006500,98.709793 299.228790,126.126167 
	C239.319366,163.645264 192.656204,213.737305 160.480392,276.876831 
	C129.957001,336.773773 116.027023,400.519775 117.420982,467.655548 
	C117.549911,473.864929 118.372101,480.059906 118.866241,486.185364 
	C121.361046,486.574158 122.684525,485.439056 124.129669,484.700073 
	C131.692932,480.832733 139.255035,476.966522 147.142670,473.779663 
	C164.602936,466.725220 182.472916,460.907745 200.804596,456.636963 
	C206.231796,455.372589 208.218491,452.821014 207.710037,447.298370 
	C207.100296,440.675781 207.031525,433.988831 207.012115,427.328918 
	C206.925629,397.664520 206.954727,367.999847 206.888153,338.335358 
	C206.883453,336.236847 207.778534,333.127411 205.733673,332.266052 
	C198.578812,329.252167 202.744934,325.387970 204.832382,322.117340 
	C208.502228,316.367401 212.963867,311.115631 216.527756,305.307800 
	C218.914886,301.417664 221.805267,299.805756 226.263245,299.817322 
	C249.761230,299.878387 273.259613,299.783630 296.757843,299.741608 
	C298.779388,299.738007 300.912720,299.691162 302.362305,301.318146 
	C309.122345,308.905487 315.514526,316.799316 321.126526,325.277802 
	C322.628662,327.547211 322.566223,329.859619 319.051392,330.350525 
	C316.656769,330.684998 316.210022,332.290039 316.213715,334.301178 
	C316.248169,353.133057 316.300415,371.964935 316.279114,390.796753 
	C316.276001,393.547791 317.350281,394.709717 320.138000,394.656769 
	C325.635620,394.552277 331.138275,394.549957 336.635681,394.661530 
	C339.736145,394.724487 340.684875,393.228882 340.667145,390.367065 
	C340.600983,379.701508 340.648010,369.035248 340.642975,358.369263 
	C340.642242,356.857544 340.566345,355.482941 338.963776,354.522186 
	C334.699127,351.965515 334.448456,350.214478 338.007416,346.919678 
	C344.487732,340.920410 351.088715,335.051514 358.146606,328.631775 
M402.325134,472.392303 
	C400.529297,472.064178 398.673981,471.922028 396.949432,471.370880 
	C392.840820,470.057678 390.745728,471.721436 389.753967,475.645813 
	C388.939636,478.868225 387.894836,482.032471 386.949371,485.221680 
	C378.217865,514.675232 375.352264,544.907043 379.821045,575.087036 
	C384.449768,606.347473 397.896301,634.455505 417.506805,659.446838 
	C419.817474,662.391479 421.389374,662.516968 424.222900,659.958557 
	C436.090851,649.243225 448.017090,638.578369 460.271637,628.312439 
	C464.982147,624.366272 466.162048,620.233643 465.199371,614.366516 
	C463.469513,603.824158 465.240265,594.231506 474.283020,586.947510 
	C479.980255,582.358337 485.173920,577.144836 490.608978,572.228638 
	C491.972687,570.995056 493.391235,569.669189 495.361023,569.730591 
	C505.129181,570.035034 514.831909,571.209534 522.485535,577.898010 
	C527.726318,582.477905 532.174622,587.978394 536.864197,593.169373 
	C539.270874,595.833435 539.956360,598.878052 538.493958,602.412292 
	C535.303223,610.123352 526.614502,612.263367 520.547058,606.504272 
	C516.446350,602.612000 512.742737,598.304199 508.755890,594.287170 
	C507.584534,593.106995 506.054840,592.262878 504.227844,593.098389 
	C501.996399,594.118896 503.002502,595.900757 503.281189,597.437073 
	C504.934540,606.551392 505.008484,615.609802 502.540527,624.612183 
	C502.336365,625.356873 502.111633,626.267273 503.606049,626.990295 
	C509.101074,622.026184 510.442963,614.716553 513.039490,607.548340 
	C518.392334,612.446045 525.007019,614.365723 528.272156,620.804199 
	C529.978882,624.169800 533.504761,626.423218 537.660400,626.673950 
	C539.799744,626.803040 540.981750,627.962891 541.814270,629.732361 
	C543.465210,633.241516 545.766052,636.330017 548.508789,639.003479 
	C550.812805,641.249390 550.884827,642.992310 548.539185,645.232666 
	C544.446289,649.141602 540.528442,653.216125 536.256226,656.957947 
	C530.256042,662.213196 523.690247,665.657104 515.517151,665.284668 
	C513.521912,665.193787 512.012207,665.910522 510.797821,667.520386 
	C502.049103,679.118347 491.504669,689.134155 482.058197,700.116821 
	C480.383667,702.063660 478.161133,703.784668 477.936523,706.785950 
	C480.598999,709.280823 483.946411,710.462891 487.123047,711.778381 
	C513.048218,722.513916 503.553833,724.026611 529.103271,710.616150 
	C556.447388,696.263733 580.043335,677.030518 597.597046,651.334656 
	C616.282654,623.981995 626.488464,593.535706 628.982727,560.431824 
	C630.997131,533.696533 627.335571,507.684296 619.952148,482.095093 
	C617.777222,474.557495 617.381226,474.645416 609.742310,475.449097 
	C588.078369,477.728363 566.570190,476.062134 545.118469,472.845612 
	C532.324768,470.927277 519.796875,467.136841 506.701294,467.333344 
	C492.168793,467.551422 478.001526,470.708557 463.730896,472.900879 
	C443.486877,476.010834 423.344452,476.372223 402.325134,472.392303 
M591.502808,427.905487 
	C627.669434,411.249634 664.766296,409.417175 702.222473,422.371063 
	C710.954651,425.391022 717.782288,425.397369 725.239868,420.336823 
	C728.102600,418.394165 728.988647,416.903442 727.938232,413.535950 
	C718.072205,381.904663 691.723450,362.336578 660.007446,361.701721 
	C635.753540,361.216217 615.341492,371.058929 600.240906,390.672119 
	C592.941101,400.153290 588.855591,410.953949 587.521851,422.746521 
	C587.295227,424.750702 585.177063,429.201111 591.502808,427.905487 
M238.819946,597.614258 
	C249.233429,598.205872 258.843811,595.248901 268.235291,591.124451 
	C282.297638,584.948853 296.932678,582.918396 312.098846,585.704590 
	C320.182220,587.189575 327.428741,591.161926 335.105225,593.865540 
	C342.876556,596.602478 350.795105,598.073242 359.065765,597.664246 
	C362.791077,597.479980 364.138580,595.902588 363.290436,592.225464 
	C362.321198,588.023376 361.400360,583.797485 360.764893,579.536194 
	C360.435150,577.325073 359.579987,576.252686 357.352692,576.133057 
	C344.027771,575.417542 331.493378,571.925964 319.808228,565.425110 
	C318.812988,564.871399 317.621033,564.638611 316.495392,564.356873 
	C300.399506,560.329529 284.773743,562.300476 269.663788,568.567444 
	C250.337494,576.583191 231.134552,576.610901 212.061295,568.143860 
	C194.455841,560.328430 176.932617,560.427002 159.344666,567.883850 
	C154.116699,570.100342 148.739349,571.804565 143.247025,573.140015 
	C136.026581,574.895630 136.007889,574.818726 138.303238,581.714539 
	C143.307327,596.747986 144.885101,597.481445 159.335434,590.339111 
	C177.314606,581.452576 195.441345,582.377747 213.276245,590.067017 
	C221.300186,593.526428 229.243759,596.567810 238.819946,597.614258 
M338.460144,534.660950 
	C343.938019,534.390686 349.416016,534.123474 354.893677,533.848877 
	C357.169098,533.734802 359.319000,533.393188 359.611115,530.509460 
	C360.313904,523.571838 360.922119,516.623840 361.703766,509.695221 
	C362.081482,506.347443 360.716156,504.713715 357.444000,504.359192 
	C353.813202,503.965851 350.183441,503.533875 346.572632,502.989990 
	C330.011658,500.495392 313.342773,500.525787 296.853882,502.685852 
	C268.517120,506.398041 242.104431,516.182373 217.306854,530.339905 
	C216.110077,531.023193 214.468491,531.345520 214.258667,533.678833 
	C255.402679,535.498474 296.437256,535.038269 338.460144,534.660950 
M774.847107,538.607483 
	C770.987610,531.383301 765.878235,526.100952 756.951904,525.611572 
	C752.511169,525.368042 748.132690,524.081238 743.713196,523.343140 
	C725.523132,520.305054 707.254272,518.107971 688.823730,516.949768 
	C676.171387,516.154663 663.548889,516.342041 650.909424,516.313110 
	C646.671021,516.303406 644.655823,518.481506 645.605347,522.689819 
	C646.238831,525.497375 646.376709,528.298828 646.308472,531.118042 
	C646.231140,534.313782 647.709717,535.700256 650.814209,535.643677 
	C659.303406,535.488892 667.757874,536.154480 676.229736,536.559021 
	C691.514343,537.288757 706.667542,539.093201 721.778748,541.277527 
	C740.519165,543.986511 759.000732,548.036316 777.334839,552.759766 
	C778.565491,553.076782 779.908875,553.998108 781.067627,552.743347 
	C782.315552,551.392029 781.704956,549.886475 780.948669,548.584839 
	C779.111023,545.422058 777.158142,542.326294 774.847107,538.607483 
M795.360596,429.306763 
	C795.357178,446.277466 795.350769,463.248169 795.354309,480.218872 
	C795.354736,482.198730 795.348633,484.057953 796.733032,485.852173 
	C801.842102,492.473877 807.545959,497.025604 816.837952,495.937347 
	C821.277527,495.417419 822.641602,493.984589 822.632080,489.968445 
	C822.594849,474.329041 822.589661,458.689148 822.698853,443.050293 
	C822.718201,440.278046 821.817627,438.283081 819.625916,436.665436 
	C813.540649,432.174225 806.717224,429.126709 799.698853,426.504364 
	C797.918091,425.838959 795.553589,425.146942 795.360596,429.306763 
M887.550110,582.108154 
	C889.373413,576.228638 891.143616,570.331787 893.046631,564.478210 
	C893.786194,562.203125 894.098938,560.225769 891.487610,558.989319 
	C876.274902,551.786255 860.739319,545.400879 844.598572,540.564148 
	C843.345154,540.188538 841.857910,539.813110 840.843445,540.996887 
	C839.595154,542.453491 840.672363,543.832703 841.400513,545.104858 
	C843.800232,549.296997 846.584351,553.304077 848.620239,557.662781 
	C854.777405,570.845093 863.585938,580.960999 878.240662,584.798096 
	C878.871704,584.963257 879.488037,585.303223 880.027405,585.681274 
	C883.904419,588.398682 886.388855,587.661377 887.550110,582.108154 
M783.339294,471.795013 
	C785.286926,471.633362 784.566162,470.040497 784.573486,469.121796 
	C784.683228,455.308472 784.626892,441.493500 784.785522,427.680939 
	C784.837585,423.142090 781.956116,422.283997 778.592407,422.503021 
	C772.635315,422.890808 766.699280,423.604553 760.860352,425.024963 
	C758.312073,425.644897 757.262695,426.903137 757.292786,429.518341 
	C757.361816,435.508392 757.291199,441.501434 757.180847,447.491455 
	C757.140320,449.694641 757.921143,451.324310 759.713196,452.576447 
	C767.913513,458.306213 775.296509,465.042297 783.339294,471.795013 
M839.502747,451.861389 
	C834.728394,449.209076 833.414429,449.770142 833.379700,454.791412 
	C833.293457,467.243744 833.406250,479.697601 833.292542,492.149506 
	C833.263123,495.371552 834.393555,497.279144 837.674438,497.537872 
	C842.962341,497.954926 848.261353,498.234680 853.547607,498.669159 
	C857.129089,498.963501 858.774231,497.478271 858.766296,493.841248 
	C858.752197,487.366882 858.824219,480.889984 859.011963,474.418549 
	C859.096130,471.516693 858.015381,469.355286 855.940552,467.421753 
	C850.597534,462.442566 845.345093,457.366180 839.502747,451.861389 
M637.431396,482.284546 
	C639.059753,486.103149 639.100952,490.585632 641.796387,493.920746 
	C643.168396,493.467377 643.450684,492.677765 643.523071,491.846375 
	C645.214233,472.422974 644.602600,452.955353 644.583740,433.500427 
	C644.580566,430.210388 642.292725,429.127319 639.483704,429.539886 
	C634.561096,430.262878 629.690430,431.334015 624.790161,432.215698 
	C620.587036,432.971924 619.902649,435.147583 621.380920,439.009247 
	C626.787537,453.132263 631.970947,467.340698 637.431396,482.284546 
M655.275574,437.670197 
	C655.275574,453.279785 655.275574,468.889343 655.275574,484.498932 
	C659.783325,480.315308 663.023926,475.916626 666.502686,471.715179 
	C669.997131,467.495026 673.730347,463.472656 677.355347,459.360504 
	C678.279480,458.312103 678.659485,457.072205 678.628357,455.685577 
	C678.220520,437.538391 681.838013,440.989777 664.999695,433.114258 
	C664.097534,432.692291 663.164734,432.333832 662.237305,431.968353 
	C655.756653,429.414520 655.326782,429.709900 655.275574,437.670197 
M709.655945,465.795288 
	C709.651428,464.963043 709.582947,464.125336 709.653137,463.299438 
	C710.008789,459.112762 706.843811,457.557709 703.995056,455.902527 
	C701.227661,454.294617 699.843384,456.948944 698.021301,458.182281 
	C690.722900,463.122467 689.148560,470.338928 689.276489,478.611420 
	C689.515198,494.041351 689.340881,493.953766 704.799622,493.729248 
	C708.535645,493.674927 709.827820,492.251892 709.759705,488.692291 
	C709.619690,481.372253 709.680847,474.048370 709.655945,465.795288 
M730.280090,477.224274 
	C727.813782,475.125854 726.091187,472.103607 722.324219,470.697815 
	C720.376404,475.398254 721.379639,480.062439 721.240479,484.552185 
	C720.930542,494.550690 721.039551,494.560150 730.612000,495.854584 
	C733.238037,496.209656 735.875793,496.480774 738.498596,496.857025 
	C740.675415,497.169312 742.962952,498.658508 744.976746,495.993469 
	C744.729614,495.285004 744.626038,494.404144 744.171875,493.777344 
	C740.073914,488.122467 735.586487,482.787140 730.280090,477.224274 
M386.626373,445.842773 
	C386.628540,439.849548 386.568512,433.855438 386.652985,427.863373 
	C386.717743,423.268890 383.884155,422.458313 380.126343,422.296570 
	C376.099609,422.123230 376.007080,424.676849 376.023468,427.527313 
	C376.057953,433.520142 376.203705,439.517914 376.012573,445.504364 
	C375.892517,449.264496 378.072601,449.720886 380.996826,450.130127 
	C384.027283,450.554291 386.400391,450.586182 386.626373,445.842773 
M606.228699,445.298615 
	C606.551514,443.161041 606.890747,441.020996 605.367004,439.169220 
	C602.034912,439.396515 594.346802,442.281677 592.532837,443.964905 
	C590.846680,445.529510 590.511230,457.112427 592.428040,458.086731 
	C595.907288,459.855133 599.800415,460.056885 603.561523,458.956940 
	C606.949402,457.966156 605.651611,454.908478 605.872131,452.609558 
	C606.077698,450.466400 606.053711,448.301208 606.228699,445.298615 
M236.214630,444.445526 
	C237.052704,439.516296 236.618011,434.554047 236.523254,429.608490 
	C236.463135,426.471069 234.380280,425.472626 231.517883,425.380341 
	C228.496048,425.282898 227.299149,426.813416 227.379379,429.616821 
	C227.497482,433.742737 227.406448,437.897064 227.876404,441.985016 
	C228.504288,447.446747 230.555893,448.161194 236.214630,444.445526 
M449.943207,418.479187 
	C442.347961,417.869080 442.346893,417.869080 442.348877,425.128601 
	C442.349731,428.267487 442.376343,431.406494 442.353027,434.545166 
	C442.336456,436.777374 443.366791,438.131226 445.624207,437.845947 
	C447.854523,437.564087 451.473328,438.888092 451.666687,435.316559 
	C451.963257,429.838257 453.235382,424.181580 449.943207,418.479187 
M232.284531,345.374146 
	C230.020233,345.260254 227.607468,345.306519 227.498917,348.283264 
	C227.324265,353.073395 227.405197,357.881653 227.606323,362.672699 
	C227.696320,364.816223 229.190018,365.764862 231.386383,365.668549 
	C233.407471,365.579895 236.030029,365.731079 236.229919,363.304749 
	C236.648804,358.220123 236.507233,353.075195 236.333267,347.963959 
	C236.276962,346.309692 234.682205,345.622742 232.284531,345.374146 
M369.773804,366.850403 
	C366.847778,366.463928 362.986603,364.517548 362.480927,369.524719 
	C361.983307,374.452179 362.308929,379.472046 362.419159,384.448151 
	C362.486145,387.473236 364.809113,387.545105 367.061005,387.654053 
	C369.451874,387.769714 371.034363,386.928955 370.900299,384.329865 
	C370.610474,378.711182 371.444672,373.054077 369.773804,366.850403 
M236.611526,391.906677 
	C236.902130,387.957581 235.570389,385.367950 231.130768,385.467834 
	C226.272705,385.577087 227.514572,389.292938 227.380600,392.055389 
	C227.235840,395.040039 227.468063,398.043091 227.322098,401.027649 
	C227.134811,404.857117 228.508926,406.045044 232.405014,405.154053 
	C235.326263,404.486023 236.866348,403.448273 236.654648,400.284302 
	C236.488571,397.802185 236.615646,395.300415 236.611526,391.906677 
M250.366150,361.003784 
	C250.134888,364.459747 251.884262,365.718597 255.186325,365.677582 
	C258.635956,365.634766 258.689667,363.394806 258.677338,360.931061 
	C258.656616,356.785004 258.578125,352.635651 258.709595,348.493561 
	C258.800995,345.613586 257.832001,344.244659 254.743454,344.223663 
	C251.525299,344.201813 250.227798,345.498474 250.328995,348.668365 
	C250.450668,352.478973 250.357574,356.296417 250.366150,361.003784 
M255.503448,385.447815 
	C253.176941,385.503510 250.822815,386.103027 250.641724,388.707520 
	C250.332062,393.160706 250.290680,397.680847 250.711731,402.118286 
	C250.959259,404.727112 253.219452,405.861633 255.911896,405.636230 
	C258.800018,405.394440 258.654968,403.229797 258.664856,401.221558 
	C258.684540,397.233856 258.639923,393.245850 258.643402,389.257965 
	C258.644958,387.489258 258.442719,385.883270 255.503448,385.447815 
M252.239365,425.758301 
	C249.682373,426.468628 250.385284,428.617126 250.404053,430.289215 
	C250.444794,433.923248 250.931732,437.560730 250.828476,441.185211 
	C250.741440,444.240295 252.374496,444.728302 254.804810,444.906464 
	C257.600494,445.111359 258.766815,443.927124 258.718689,441.190857 
	C258.657532,437.715820 258.517334,434.225159 258.762268,430.766083 
	C259.079956,426.279572 257.242767,424.636780 252.239365,425.758301 
M386.891632,381.969330 
	C387.085876,384.524567 385.586304,387.859314 390.419281,387.940796 
	C395.224792,388.021729 394.629456,384.833710 394.646088,381.865234 
	C394.664642,378.551270 394.597504,375.236145 394.660706,371.923309 
	C394.710602,369.308014 394.250488,367.410828 390.962219,367.331726 
	C387.366455,367.245209 386.921509,369.354736 386.956329,372.137451 
	C386.993622,375.119110 386.929138,378.102051 386.891632,381.969330 
M472.030609,425.741211 
	C472.055115,428.877747 471.998932,432.017639 472.128174,435.149872 
	C472.244263,437.964111 474.222839,438.587769 476.607788,438.605316 
	C479.051422,438.623291 479.664276,437.130005 479.655212,435.046844 
	C479.640839,431.744049 479.536377,428.435150 479.696899,425.139893 
	C479.853882,421.917267 479.227814,419.450439 475.367157,419.479919 
	C471.572998,419.508911 472.068207,422.377747 472.030609,425.741211 
M297.705841,364.465973 
	C297.693024,359.147797 297.673676,353.829620 297.670807,348.511444 
	C297.669769,346.554260 296.996765,345.309631 294.764191,345.429871 
	C292.740143,345.538879 292.358887,346.844391 292.359497,348.498444 
	C292.361572,354.283722 292.360321,360.068970 292.360321,365.774689 
	C294.557343,366.592804 296.260315,367.328796 297.705841,364.465973 
M875.433044,489.080231 
	C874.175842,487.909515 873.666016,485.784332 870.444946,485.903229 
	C870.619446,490.313385 868.278931,495.325714 871.210388,498.965698 
	C873.454529,501.752197 878.079102,501.264313 882.040222,499.733765 
	C881.296997,495.354279 878.041199,492.818726 875.433044,489.080231 
M292.672302,403.547913 
	C295.866425,406.111542 297.598389,404.977722 297.784119,401.258484 
	C297.991486,397.105591 297.848175,392.933960 297.814789,388.770813 
	C297.800781,387.025146 297.663788,385.340851 295.172516,385.497589 
	C293.064117,385.630219 292.302338,386.737915 292.338501,388.756866 
	C292.421997,393.418304 292.415039,398.081421 292.672302,403.547913 
M678.543884,488.898315 
	C678.422180,486.010864 679.344482,482.999542 677.510498,479.855194 
	C673.397400,482.947083 670.869507,486.832489 668.321960,491.739685 
	C672.385681,492.274750 676.031311,494.865509 678.543884,488.898315 
M743.383850,431.299835 
	C739.932312,431.840851 736.745667,432.842438 734.523499,436.159149 
	C737.757324,438.389954 740.703247,440.424927 744.581543,441.356323 
	C745.882202,437.834351 746.883789,434.627625 743.383850,431.299835 
M573.587280,457.225922 
	C575.468750,457.821625 577.356628,458.317871 579.568481,457.633514 
	C579.704285,456.169037 580.183472,454.727783 578.574585,453.535431 
	C576.185486,453.422974 574.682861,454.833252 573.587280,457.225922 
z"/>
<path fill="#000000" opacity="1.000000" stroke="none" 
	d="
M313.664001,934.999878 
	C313.668304,927.339478 313.669739,920.179016 313.678833,913.018616 
	C313.681488,910.937256 313.744537,908.792236 316.615814,908.799866 
	C326.933929,908.827087 337.279846,908.482483 347.560303,909.139160 
	C354.721436,909.596558 361.535950,912.167908 364.090607,919.928955 
	C366.822693,928.229004 366.049286,936.069641 358.666046,942.729126 
	C365.294556,946.687317 367.640564,952.601135 367.377411,959.908325 
	C367.031677,969.508850 361.054413,976.684143 351.473999,978.173767 
	C340.393280,979.896667 329.226227,979.277832 318.077972,979.046692 
	C314.615448,978.974915 313.594025,977.241760 313.623627,973.966064 
	C313.739563,961.144897 313.666748,948.322144 313.664001,934.999878 
M342.843597,964.667358 
	C348.719391,963.375854 351.120392,961.010620 350.588593,956.842957 
	C349.948944,951.829285 346.175903,951.168335 342.151489,951.046265 
	C339.333557,950.960754 336.510773,950.990967 333.690948,951.029968 
	C331.821869,951.055786 330.714752,951.821045 330.332458,953.896118 
	C328.597717,963.311829 330.075500,965.142761 339.487732,964.839050 
	C340.316956,964.812256 341.145203,964.755432 342.843597,964.667358 
M348.749390,928.826904 
	C346.915802,921.964661 341.245178,923.785522 336.488739,923.280823 
	C331.743042,922.777283 329.979370,924.428894 330.225189,929.365234 
	C330.594757,936.786743 330.302246,936.801392 337.617706,936.716736 
	C338.783997,936.703247 339.950348,936.674622 341.116608,936.677307 
	C345.858521,936.688110 348.770630,934.718262 348.749390,928.826904 
z"/>
<path fill="#000000" opacity="1.000000" stroke="none" 
	d="
M191.939789,841.005676 
	C191.950928,836.846130 191.957855,833.185486 191.967346,829.524780 
	C191.972626,827.487915 192.511154,825.791443 194.956375,825.801208 
	C205.100464,825.841553 215.286179,825.376221 225.379288,826.130859 
	C244.489502,827.559631 247.784515,847.907227 236.998917,858.639832 
	C243.129807,863.077087 245.973953,869.144714 244.790405,876.628113 
	C243.155991,886.962341 236.688065,892.854004 226.195312,893.240540 
	C216.230194,893.607605 206.241501,893.285217 196.266556,893.459717 
	C192.475082,893.526062 191.966568,891.521912 191.977005,888.428223 
	C192.029800,872.787170 191.962097,857.145813 191.939789,841.005676 
M226.130142,868.195862 
	C221.745087,865.364380 216.823868,866.554077 212.090195,866.308105 
	C209.291153,866.162720 208.443085,867.517822 208.304153,870.202209 
	C207.789841,880.139709 207.758545,880.188599 217.762634,879.784546 
	C218.921295,879.737732 220.090042,879.759155 221.235962,879.609680 
	C227.553375,878.785767 229.720352,874.416931 226.130142,868.195862 
M213.674026,853.060913 
	C215.986099,852.960144 218.302200,852.914795 220.609299,852.745972 
	C224.231842,852.480774 226.501785,850.729736 226.625198,846.872314 
	C226.750290,842.962097 224.241318,841.156372 220.914276,840.541992 
	C218.506805,840.097412 215.970322,840.307617 213.491333,840.306763 
	C211.045929,840.305908 207.845917,839.849670 208.470032,843.729675 
	C209.014832,847.116638 205.365173,852.761597 213.674026,853.060913 
z"/>
<path fill="#000000" opacity="1.000000" stroke="none" 
	d="
M400.597717,742.952637 
	C402.202454,743.195618 403.343323,743.440613 404.496796,743.585266 
	C420.205444,745.554138 426.477631,759.855591 417.384796,772.987793 
	C416.923798,773.653564 416.474335,774.327332 415.895416,775.180115 
	C418.402069,778.004944 420.904877,780.687500 422.064514,784.244446 
	C426.410187,797.573853 418.504364,809.510071 404.383911,810.214844 
	C394.590515,810.703552 384.754974,810.301086 374.940216,810.436707 
	C371.706604,810.481323 370.588531,809.159119 370.602173,805.989746 
	C370.686768,786.357117 370.696228,766.723755 370.601593,747.091248 
	C370.585175,743.683167 372.190918,742.829590 375.183990,742.859558 
	C383.501892,742.942871 391.821075,742.900635 400.597717,742.952637 
M386.815521,795.650269 
	C390.283081,798.135742 394.190948,796.904846 397.888428,796.771362 
	C403.478271,796.569519 406.705475,793.777649 406.573273,789.857300 
	C406.433960,785.727173 403.316681,783.299988 397.592957,783.354553 
	C385.345398,783.471130 386.086090,781.342957 386.815521,795.650269 
M404.691772,764.323975 
	C404.999512,761.008789 403.528503,758.820068 400.331757,758.053223 
	C395.965485,757.005859 391.549042,756.721680 387.177124,758.118286 
	C386.932190,758.196594 386.770172,758.615967 386.622101,758.903625 
	C383.706390,764.566101 387.086792,770.067871 393.430450,769.967651 
	C395.088531,769.941406 396.746887,769.858887 398.402435,769.758118 
	C401.491364,769.570190 403.842438,768.370361 404.691772,764.323975 
z"/>
<path fill="#000000" opacity="1.000000" stroke="none" 
	d="
M355.690033,876.997192 
	C355.688690,861.347778 355.800659,846.196228 355.615509,831.048279 
	C355.565002,826.914246 356.961945,825.480713 361.077972,825.628357 
	C372.022949,826.021057 383.026703,824.989685 393.864105,827.548645 
	C406.270020,830.478088 415.217926,840.497925 416.267761,853.171143 
	C416.679382,858.140015 416.963806,863.195923 415.817139,868.085327 
	C411.201935,887.763611 400.562195,892.600830 382.434784,894.184937 
	C374.823700,894.850037 367.145599,894.145996 359.507050,893.471497 
	C356.741699,893.227295 355.654816,892.153381 355.697357,889.482788 
	C355.760986,885.488403 355.699646,881.492004 355.690033,876.997192 
M382.663788,840.899109 
	C381.510712,840.751221 380.361572,840.530579 379.203888,840.467529 
	C372.436829,840.098816 372.318939,840.220886 372.315125,847.162476 
	C372.310822,854.976440 372.266754,862.790894 372.329834,870.604309 
	C372.408783,880.380676 370.848694,879.693481 381.398041,879.617676 
	C392.294434,879.539368 399.231262,873.078735 399.700928,862.724854 
	C400.327454,848.914062 395.521301,842.480713 382.663788,840.899109 
z"/>
<path fill="#000000" opacity="1.000000" stroke="none" 
	d="
M658.604492,790.238159 
	C653.105347,803.768982 642.417358,809.222290 629.110840,810.167053 
	C620.834412,810.754639 612.484070,810.244690 604.169434,810.381897 
	C600.970032,810.434570 599.709961,809.153015 599.719116,805.974854 
	C599.775391,786.347351 599.746033,766.719727 599.725708,747.092102 
	C599.723511,744.916748 600.025146,742.894043 602.754456,742.900940 
	C614.856262,742.931641 627.085876,741.650635 638.932251,745.083374 
	C651.337769,748.678162 659.270569,759.268799 660.434509,772.235291 
	C660.978577,778.296570 660.711853,784.125610 658.604492,790.238159 
M627.763306,757.853149 
	C625.785461,757.699402 623.801636,757.599854 621.831055,757.380737 
	C617.467712,756.895691 616.067200,758.762756 616.257141,763.114685 
	C616.589722,770.734619 616.302185,778.379761 616.361816,786.013733 
	C616.447815,797.018738 614.876465,795.804138 626.169373,795.694458 
	C636.697998,795.592224 643.092407,789.789612 643.687500,779.988403 
	C644.525452,766.187500 640.060242,759.701477 627.763306,757.853149 
z"/>
<path fill="#000000" opacity="1.000000" stroke="none" 
	d="
M693.729492,974.228516 
	C694.567871,975.471863 695.207214,976.426208 696.426697,978.246765 
	C690.054199,978.246765 684.356506,978.330383 678.663391,978.204529 
	C676.466614,978.156006 675.870667,976.038330 675.024109,974.476929 
	C672.169617,969.212219 669.230042,963.982666 666.657593,958.580322 
	C665.112671,955.335876 662.698608,954.824280 659.698608,955.367310 
	C656.479187,955.950073 657.464966,958.617981 657.430786,960.600464 
	C657.333801,966.233704 657.396729,971.869690 657.396729,977.673523 
	C652.656250,978.998718 648.184753,978.292664 643.769470,978.285950 
	C641.285583,978.282227 640.920227,976.325073 640.916016,974.405518 
	C640.870544,953.765259 640.865295,933.125000 640.827881,912.484680 
	C640.823547,910.093445 641.698242,908.668152 644.312866,908.741699 
	C654.439819,909.026611 664.605591,907.868530 674.693481,909.630127 
	C684.834839,911.400940 691.293518,916.853882 693.222839,925.355286 
	C695.712708,936.326782 692.576111,944.862061 683.768799,951.098694 
	C683.100281,951.572144 682.455566,952.079163 681.490173,952.802490 
	C684.676941,960.388306 689.046387,967.195312 693.729492,974.228516 
M661.801147,941.639587 
	C664.971191,941.830750 668.082092,941.500793 671.122314,940.568604 
	C675.533997,939.215820 677.582764,936.014465 677.514038,931.616455 
	C677.449951,927.508728 673.863892,923.933472 669.579407,923.374512 
	C667.286621,923.075378 664.947754,923.146362 662.643433,922.914490 
	C658.481567,922.495667 656.880554,924.363159 657.329651,928.420166 
	C657.692993,931.703003 657.888672,935.005127 658.123291,938.301147 
	C658.253723,940.132507 658.775635,941.572083 661.801147,941.639587 
z"/>
<path fill="#000000" opacity="1.000000" stroke="none" 
	d="
M447.410767,845.447876 
	C441.396118,853.645813 441.245575,862.171326 445.230988,870.694946 
	C450.012024,880.920044 464.149017,884.458984 473.503571,878.120728 
	C476.207672,876.288574 478.204987,873.950012 478.433624,870.266113 
	C475.201355,868.270813 471.614838,869.185303 468.276794,869.239685 
	C463.032806,869.325134 462.978577,866.191650 462.938416,862.362549 
	C462.898499,858.556641 463.773865,856.461426 468.214691,856.634155 
	C475.529572,856.918701 482.869049,856.874573 490.187622,856.639771 
	C494.219177,856.510376 495.292145,858.212341 495.341248,861.960876 
	C495.639740,884.746643 480.688843,895.941650 459.503204,895.132751 
	C443.668488,894.528198 432.472351,885.033142 428.339508,870.164124 
	C424.059967,854.767517 429.395996,839.079651 441.870575,830.382263 
	C457.128052,819.744507 481.360474,824.106567 490.669098,839.180908 
	C491.177826,840.004639 491.534088,840.922607 492.202789,842.290771 
	C487.712067,844.003296 483.489136,845.744812 479.171021,847.204895 
	C477.029327,847.929077 475.974609,845.831909 474.620850,844.709961 
	C465.732574,837.344055 455.824158,837.502930 447.410767,845.447876 
z"/>
<path fill="#000000" opacity="1.000000" stroke="none" 
	d="
M699.347778,860.926025 
	C698.677551,881.404053 682.639282,895.743225 661.387146,895.329224 
	C643.053894,894.972107 629.151001,879.756653 628.530884,860.635803 
	C627.955994,842.913757 639.395081,826.946350 660.505920,824.783813 
	C679.578735,822.829956 695.310913,834.768738 698.976074,854.005188 
	C699.376160,856.104675 699.237305,858.306763 699.347778,860.926025 
M653.715332,877.893860 
	C668.554382,885.585449 682.156860,877.534302 683.493225,860.268677 
	C684.163452,851.608887 678.208069,842.605530 670.151306,840.098572 
	C660.780396,837.182739 651.672119,840.135803 647.260864,847.520142 
	C641.351501,857.412231 643.862854,870.340515 653.715332,877.893860 
z"/>
<path fill="#000000" opacity="1.000000" stroke="none" 
	d="
M711.649902,884.883179 
	C711.650208,867.086792 711.643677,849.773499 711.654785,832.460266 
	C711.659058,825.737732 711.681824,825.576172 718.611084,825.768860 
	C727.401245,826.013123 736.234558,824.766846 744.983337,826.621094 
	C753.982361,828.528320 760.700195,833.104187 762.993835,842.431946 
	C765.396606,852.203918 761.719666,860.960449 753.101624,867.120422 
	C752.707703,867.401978 752.376343,867.771179 751.689392,868.396912 
	C755.249817,877.067627 761.041321,884.561218 766.547668,893.547180 
	C760.164795,893.547180 754.764465,893.565552 749.364380,893.537842 
	C747.311035,893.527283 746.664734,891.853882 745.892090,890.387695 
	C743.100464,885.090210 740.215393,879.838135 737.577209,874.464966 
	C736.069153,871.393616 733.756775,870.412476 730.650269,871.084229 
	C727.301819,871.808289 728.290039,874.653809 728.226440,876.807556 
	C728.103577,880.965576 728.143372,885.131165 728.228088,889.291382 
	C728.287903,892.231384 727.047791,893.521301 724.048401,893.413940 
	C720.239624,893.277588 716.422241,893.380920 712.671204,893.380920 
	C710.961365,890.662598 711.938354,887.935486 711.649902,884.883179 
M731.802673,857.674561 
	C733.800964,857.647400 735.817078,857.781433 737.794128,857.562439 
	C743.508728,856.929565 746.388794,854.377930 746.684692,849.907471 
	C747.123779,843.275757 743.625671,840.403992 734.775940,840.130432 
	C728.125916,839.924988 728.066528,839.998474 728.159058,848.250793 
	C728.181519,850.249512 728.208374,852.248108 728.214783,854.246887 
	C728.220703,856.114075 728.734436,857.553589 731.802673,857.674561 
z"/>
<path fill="#000000" opacity="1.000000" stroke="none" 
	d="
M307.637329,858.287354 
	C306.047272,860.477478 304.830902,862.510071 303.208344,864.137817 
	C301.706329,865.644470 299.769684,866.718018 297.580292,868.304016 
	C301.101471,877.054138 307.310089,884.321716 312.290131,893.257507 
	C306.084381,893.257507 300.521271,893.329590 294.961761,893.218933 
	C292.989960,893.179626 292.376068,891.337097 291.603851,889.881409 
	C288.717468,884.440186 285.802368,879.013245 283.001343,873.528137 
	C281.742828,871.063782 279.995636,870.326477 277.287292,870.842224 
	C274.273041,871.416199 274.330414,873.490906 274.336945,875.728638 
	C274.353424,881.366272 274.342407,887.004028 274.342407,893.024048 
	C268.784851,893.024048 263.706940,893.024048 258.553253,893.024048 
	C257.244507,891.691772 257.695709,889.935791 257.692993,888.334534 
	C257.660522,869.336548 257.793274,850.337280 257.590698,831.341431 
	C257.542847,826.856873 259.159332,825.438171 263.421265,825.688232 
	C272.545746,826.223511 281.770966,824.628357 290.820953,826.540344 
	C307.345978,830.031616 313.836731,842.175964 307.637329,858.287354 
M281.549042,839.393982 
	C274.364410,839.448242 274.363831,839.448242 274.349823,846.354187 
	C274.346802,847.850037 274.345856,849.345947 274.350403,850.841797 
	C274.370941,857.646240 275.066864,858.270935 281.802094,857.539673 
	C289.510132,856.702759 293.453064,853.669983 293.511414,848.533142 
	C293.567047,843.634949 290.015656,840.731934 281.549042,839.393982 
z"/>
<path fill="#000000" opacity="1.000000" stroke="none" 
	d="
M612.907104,950.962280 
	C608.259094,950.967773 604.093872,951.055054 599.933289,950.952637 
	C596.566650,950.869751 595.264893,952.235352 595.226868,955.701172 
	C595.137573,963.855774 594.986938,963.840271 603.392151,963.832458 
	C609.054077,963.827148 614.719727,963.998962 620.376648,963.840515 
	C623.942017,963.740723 625.389343,964.937988 625.420654,968.705200 
	C625.497253,977.942139 625.666016,978.177307 616.356140,978.409607 
	C605.060608,978.691589 593.757812,979.077637 582.448608,978.464905 
	C579.373291,978.298340 577.845581,977.386658 577.851746,974.128845 
	C577.890625,953.645996 577.871582,933.162842 577.825684,912.679993 
	C577.818787,909.602966 579.386414,908.690430 582.211060,908.703613 
	C594.867065,908.762756 607.523804,908.772217 620.179565,908.687012 
	C623.054565,908.667725 624.372681,909.555664 624.448059,912.655823 
	C624.744934,924.878357 626.860107,924.151733 613.929382,924.085938 
	C609.266663,924.062256 604.597961,924.180176 599.942688,923.982544 
	C594.169617,923.737305 595.401489,927.813354 595.182129,931.162354 
	C594.956055,934.615417 595.464539,936.956848 599.891052,936.725708 
	C605.537231,936.431030 611.213562,936.772278 616.872375,936.640869 
	C620.039490,936.567444 621.582886,937.726196 621.275635,940.991150 
	C621.213501,941.651306 621.268494,942.322510 621.270813,942.988647 
	C621.299011,950.883789 621.299072,950.883789 612.907104,950.962280 
z"/>
<path fill="#000000" opacity="1.000000" stroke="none" 
	d="
M407.089966,924.078796 
	C398.389984,924.019470 398.687073,924.035278 398.335175,930.637939 
	C398.070679,935.600952 399.971771,937.036743 404.663605,936.737854 
	C409.967712,936.400024 415.314911,936.804260 420.635132,936.631348 
	C424.132568,936.517700 425.224182,937.997375 425.310608,941.358765 
	C425.557831,950.974060 425.671570,950.961182 415.996552,950.962708 
	C411.669434,950.963379 407.342163,951.000732 403.015198,951.044434 
	C396.972839,951.105408 398.794159,955.695557 398.411926,959.037170 
	C397.994080,962.690430 399.518280,964.133606 403.236542,964.022217 
	C410.221344,963.812927 417.224609,964.125427 424.202606,963.819397 
	C428.594482,963.626831 430.348267,965.332458 430.048523,969.583557 
	C429.931763,971.239868 429.965790,972.912903 430.030640,974.574463 
	C430.138000,977.324158 428.866913,978.440552 426.131165,978.427002 
	C412.649994,978.360046 399.168152,978.333496 385.687073,978.399475 
	C382.622650,978.414429 381.638580,977.043030 381.645935,974.158875 
	C381.698273,953.687012 381.703857,933.214905 381.634094,912.743164 
	C381.623657,909.676453 382.953094,908.684204 385.851929,908.699341 
	C398.833771,908.767273 411.816528,908.773254 424.798096,908.679932 
	C427.943939,908.657349 429.309235,909.779480 429.285889,913.034729 
	C429.191223,926.232422 430.172607,923.919739 419.059113,924.096619 
	C415.232117,924.157532 411.403076,924.091553 407.089966,924.078796 
z"/>
<path fill="#000000" opacity="1.000000" stroke="none" 
	d="
M434.810730,785.594238 
	C434.734985,772.643982 434.800568,760.151062 434.614594,747.661865 
	C434.558960,743.926575 435.960663,742.699585 439.597015,742.805054 
	C453.319824,743.203308 451.172577,740.885376 451.327209,754.336304 
	C451.438232,763.995483 451.255981,773.658203 451.381714,783.317017 
	C451.510620,793.223328 458.491119,798.659058 468.071808,796.516296 
	C473.084595,795.395142 476.579224,790.977417 476.722351,784.490479 
	C476.979462,772.837646 476.824188,761.176147 476.895905,749.518616 
	C476.936768,742.875427 476.985748,742.803528 483.604370,742.826172 
	C494.873291,742.864624 494.217926,741.250122 494.069092,753.185913 
	C493.921844,764.995117 495.053436,776.853882 493.396210,788.607422 
	C491.344574,803.157837 481.847992,811.240051 467.159851,811.392090 
	C462.331726,811.442078 457.520660,811.490417 452.822754,809.989929 
	C441.136108,806.257263 436.129028,797.570862 434.810730,785.594238 
z"/>
<path fill="#000000" opacity="1.000000" stroke="none" 
	d="
M507.734497,881.963745 
	C507.738098,864.819519 507.851837,848.168884 507.670837,831.521484 
	C507.624481,827.259949 508.880676,825.572021 513.332336,825.658813 
	C524.982422,825.885986 536.641296,825.826355 548.293884,825.670471 
	C551.935242,825.621826 553.247375,826.902527 553.321777,830.573914 
	C553.534485,841.069458 553.664246,841.054810 543.330688,840.962708 
	C538.336304,840.918152 533.340454,840.981201 528.346863,840.899597 
	C523.259888,840.816467 524.197021,844.485107 524.058716,847.548279 
	C523.916626,850.694397 524.300232,853.190186 528.473206,853.034424 
	C533.294373,852.854492 538.142273,853.245483 542.952454,852.955566 
	C547.586670,852.676331 549.556030,854.082031 549.312195,859.091431 
	C548.946228,866.609558 549.241333,866.681152 541.499023,866.852478 
	C537.341064,866.944519 533.171143,866.932068 529.019165,866.720459 
	C525.687622,866.550598 524.187012,867.690125 524.053894,871.208252 
	C523.740723,879.480408 523.771729,879.645142 531.935181,879.649109 
	C537.596008,879.651794 543.259766,879.768188 548.916443,879.616699 
	C552.118530,879.531006 553.245850,880.747498 553.350525,883.967407 
	C553.659729,893.479553 553.780457,893.444946 544.349365,893.426575 
	C534.359924,893.407104 524.369568,893.383606 514.381165,893.496887 
	C507.771851,893.571899 507.772064,893.678284 507.740601,886.953918 
	C507.733582,885.455505 507.736603,883.957031 507.734497,881.963745 
z"/>
<path fill="#000000" opacity="1.000000" stroke="none" 
	d="
M617.279419,839.098389 
	C623.391052,855.354309 615.799255,868.871155 599.231812,871.685486 
	C596.463928,872.155701 593.610718,872.237244 590.793518,872.281494 
	C583.251953,872.400024 583.250916,872.353271 583.247192,880.116272 
	C583.246399,881.779541 583.247681,883.442810 583.250000,885.106079 
	C583.262329,893.934814 583.262512,893.934937 574.247620,893.909790 
	C566.956177,893.889465 566.907959,893.878601 566.897461,886.807739 
	C566.870422,868.511719 567.004333,850.214172 566.788208,831.920654 
	C566.732422,827.194397 568.150208,825.324280 573.027100,825.649780 
	C581.963318,826.245972 590.961975,824.958374 599.890259,826.615417 
	C607.547791,828.036621 613.517578,831.659180 617.279419,839.098389 
M588.629639,858.695374 
	C590.782166,858.641235 592.973511,858.827698 595.080139,858.488647 
	C601.840393,857.400513 605.308655,851.442871 602.661377,845.730774 
	C600.643066,841.375732 593.500549,838.961182 586.297058,840.424011 
	C581.160767,841.467041 583.841187,845.720703 583.302673,848.583679 
	C582.971375,850.345215 583.359436,852.229187 583.205078,854.039551 
	C582.916199,857.427063 584.239197,859.081726 588.629639,858.695374 
z"/>
<path fill="#000000" opacity="1.000000" stroke="none" 
	d="
M557.889832,924.041504 
	C545.293945,923.955383 545.293579,923.955383 545.290283,936.156860 
	C545.286926,948.468323 545.145935,960.782227 545.358521,973.089966 
	C545.430298,977.248352 544.006714,978.578979 539.903687,978.468323 
	C526.612610,978.109619 528.862183,979.861694 528.669739,967.442993 
	C528.471436,954.640747 528.832397,941.837097 527.872559,929.036011 
	C527.570435,925.006226 526.052734,923.837646 522.408447,923.966492 
	C518.754028,924.095764 515.088867,923.884216 511.430084,923.937805 
	C508.582550,923.979431 507.091095,923.010315 507.274567,919.854675 
	C507.475098,916.405151 507.320160,912.934998 507.320160,910.035583 
	C509.286591,908.371277 510.848633,908.731018 512.297546,908.728027 
	C528.102783,908.695190 543.908997,908.796936 559.712646,908.635620 
	C563.684631,908.595093 565.766907,909.649292 565.167847,913.960449 
	C565.009094,915.102966 565.145508,916.286255 565.143311,917.450806 
	C565.130981,923.953918 565.122253,923.962158 557.889832,924.041504 
z"/>
<path fill="#000000" opacity="1.000000" stroke="none" 
	d="
M460.606506,951.023804 
	C460.415283,943.202942 460.148468,935.878235 460.071136,928.551636 
	C460.038086,925.418823 458.795868,923.959900 455.601868,924.021790 
	C451.771362,924.096008 447.935516,923.897705 444.105194,923.976013 
	C441.029175,924.038818 439.575470,922.962524 439.613953,919.624146 
	C439.764008,906.611084 438.606079,908.868286 450.013031,908.756470 
	C463.510162,908.624268 477.013397,908.908203 490.505829,908.623901 
	C495.223206,908.524475 496.502899,910.190247 496.406921,914.668335 
	C496.204376,924.120361 496.404236,924.123596 486.748505,924.033997 
	C485.248810,924.020081 483.739532,924.126648 482.251099,923.993713 
	C478.283997,923.639404 477.077362,925.485168 477.118622,929.303650 
	C477.275299,943.800293 477.058075,958.301392 477.263855,972.796814 
	C477.331818,977.585205 475.908813,979.203064 470.888641,978.737244 
	C460.676453,977.789551 460.655365,978.067688 460.649200,967.517273 
	C460.646057,962.184570 460.622101,956.851868 460.606506,951.023804 
z"/>
<path fill="#000000" opacity="1.000000" stroke="none" 
	d="
M808.328857,873.999634 
	C808.320435,879.490662 808.207031,884.484558 808.340942,889.471863 
	C808.423218,892.535339 807.502625,893.907654 804.134766,894.034302 
	C791.646423,894.503906 791.653076,894.614990 791.654724,882.113281 
	C791.656250,870.300842 791.460388,858.483765 791.746704,846.678345 
	C791.856506,842.150513 790.191162,840.730469 785.961365,841.080322 
	C783.321045,841.298706 780.622498,840.829102 777.984802,841.061646 
	C772.978394,841.502991 771.300781,839.519775 771.547668,834.465088 
	C772.018311,824.829590 770.560486,825.778992 780.564514,825.741943 
	C795.038696,825.688293 809.514832,825.842896 823.986511,825.642639 
	C828.164734,825.584778 829.477783,827.077637 829.388245,831.135681 
	C829.132202,842.736511 830.287048,841.037231 819.630737,841.100220 
	C806.023132,841.180603 808.547119,839.899292 808.349548,852.537048 
	C808.240356,859.523010 808.328857,866.512085 808.328857,873.999634 
z"/>
<path fill="#000000" opacity="1.000000" stroke="none" 
	d="
M559.055908,746.306519 
	C559.087280,760.763245 559.087280,774.749329 559.117981,788.735413 
	C559.134155,796.082397 559.158264,796.067261 566.740601,795.961487 
	C572.733765,795.877869 578.729553,795.912537 584.719971,795.744019 
	C587.502014,795.665771 588.524353,796.640564 588.423279,799.521851 
	C587.986450,811.981140 590.046570,810.298218 578.042542,810.393372 
	C568.053040,810.472534 558.058472,810.242371 548.074280,810.484070 
	C544.067505,810.581055 542.290955,809.349060 542.323914,805.230530 
	C542.479492,785.771179 542.539185,766.311035 542.578064,746.851013 
	C542.583374,744.205261 543.499512,742.772522 546.336121,742.845215 
	C549.330750,742.921936 552.329285,742.865234 555.325867,742.839050 
	C557.402771,742.820923 558.946045,743.417236 559.055908,746.306519 
z"/>
<path fill="#000000" opacity="1.000000" stroke="none" 
	d="
M323.810883,843.002258 
	C323.792419,838.341553 323.860199,834.178101 323.737213,830.020142 
	C323.651123,827.110474 324.755127,825.685852 327.790222,825.760742 
	C331.749146,825.858521 335.712311,825.784668 339.157684,825.784668 
	C340.514984,827.042297 340.365417,828.084106 340.365112,829.062134 
	C340.358948,848.869507 340.247284,868.677551 340.398987,888.483643 
	C340.431885,892.777649 339.262482,894.355957 334.707123,894.096680 
	C323.853546,893.479065 323.831268,893.689575 323.821411,882.950012 
	C323.809357,869.800598 323.816711,856.651245 323.810883,843.002258 
z"/>
<path fill="#000000" opacity="1.000000" stroke="none" 
	d="
M526.219238,766.000000 
	C526.222656,779.137817 526.092102,791.777893 526.302734,804.412231 
	C526.375366,808.764832 525.295410,810.681824 520.482483,810.494080 
	C507.901886,810.003296 509.754669,811.978760 509.677734,799.543762 
	C509.572784,782.583130 509.795227,765.619263 509.558350,748.661255 
	C509.492828,743.970398 511.105774,742.662720 515.625854,742.778931 
	C527.842224,743.093262 525.966675,741.534302 526.202393,753.527588 
	C526.280762,757.516968 526.217529,761.509094 526.219238,766.000000 
z"/>
<path fill="#000000" opacity="1.000000" stroke="none" 
	d="
M624.789124,203.568787 
	C619.487244,202.990128 615.454773,200.024261 610.934448,198.626450 
	C605.875183,207.032883 603.247742,207.974243 593.818237,204.254898 
	C590.672485,203.014130 588.727905,202.856689 586.215820,205.940216 
	C583.128784,209.729340 578.398865,207.185776 574.415527,206.936462 
	C572.339294,206.806503 570.317505,205.629959 568.296204,204.860123 
	C566.858459,204.312546 565.280090,203.739868 563.931030,204.467392 
	C555.383972,209.076569 548.284119,204.821381 541.020569,201.025177 
	C538.665405,199.794281 536.783752,196.111053 533.759277,197.999100 
	C531.065735,199.680542 533.266052,202.954147 533.136841,205.500717 
	C532.928040,209.614761 533.080688,213.747147 533.080688,218.178207 
	C537.275452,218.667313 541.191833,219.371750 545.131470,219.543823 
	C574.758179,220.837875 604.365723,220.137726 633.990906,219.025406 
	C656.789856,218.169388 679.445251,215.878555 702.095825,213.508102 
	C714.342773,212.226440 726.603882,211.017822 738.880493,210.908859 
	C753.021118,210.783340 767.078125,212.505859 780.910950,215.672501 
	C782.067749,215.937302 783.197449,216.165527 784.115173,217.747513 
	C781.616272,223.538147 778.245789,229.258163 775.710754,235.374252 
	C772.296448,243.611710 771.428589,251.520142 775.219482,259.927612 
	C778.223572,266.590027 780.496338,273.585571 783.006836,280.464935 
	C783.678711,282.305939 784.787598,284.102570 784.133179,286.722046 
	C778.392639,285.845520 772.595459,284.887939 766.776917,284.085510 
	C749.269775,281.671051 731.758362,280.924011 714.042725,281.993713 
	C688.788513,283.518616 663.807251,287.784210 638.567017,289.022430 
	C621.276489,289.870667 603.931335,289.850098 586.616089,288.628174 
	C581.392029,288.259552 576.119934,288.571136 570.435425,288.571136 
	C571.672485,293.817932 574.499878,297.569458 576.459473,301.704468 
	C578.057312,305.076080 579.976318,308.736176 576.676758,311.836914 
	C573.241272,315.065460 569.110718,314.625183 565.131226,312.267334 
	C556.828674,307.347931 550.651978,300.278412 544.496887,291.508575 
	C547.285950,299.012787 549.574158,305.403351 549.349426,312.352600 
	C549.115173,319.595825 543.677185,322.845245 537.348999,319.233856 
	C530.029053,315.056488 526.279602,307.899658 522.816345,300.644165 
	C521.410217,297.698364 520.372192,294.576904 518.913452,291.567108 
	C519.587769,297.479980 519.623901,303.311371 518.392822,309.140717 
	C517.624756,312.777954 516.385986,316.189697 514.448181,319.322845 
	C509.047821,328.054749 502.471924,328.400543 496.419952,320.124756 
	C490.642303,312.224152 489.274902,303.180389 489.915405,293.480347 
	C487.985504,297.446442 486.104279,301.437103 484.113342,305.372345 
	C481.675690,310.190552 478.420959,314.427063 474.162567,317.742981 
	C467.786224,322.708191 461.724701,320.208984 460.423798,312.236786 
	C459.791107,308.359680 460.733246,304.661346 461.483917,300.904114 
	C461.847290,299.085510 463.457703,297.304504 461.887360,294.903992 
	C458.563843,297.962189 455.392548,301.014587 452.067810,303.889587 
	C450.060150,305.625641 447.893494,307.209869 445.657410,308.642395 
	C442.017120,310.974518 440.004425,310.000732 436.639038,306.648682 
	C431.042969,301.074799 433.527344,296.887115 436.294098,291.933319 
	C436.763855,291.092255 437.325989,290.193909 436.914948,289.099762 
	C435.818909,287.953156 434.420135,288.404327 433.160461,288.511230 
	C407.979767,290.648560 382.989655,288.617462 357.994446,285.559479 
	C331.379639,282.303345 304.642944,280.192413 277.811737,281.501068 
	C266.218536,282.066498 254.541321,282.553375 243.107971,285.036835 
	C241.968872,285.284271 240.808655,285.469696 239.439377,284.606110 
	C239.706421,280.345886 242.169037,276.671631 243.428162,272.637634 
	C244.467911,269.306488 245.456360,265.872620 247.112457,262.835968 
	C253.463898,251.189774 251.179291,240.153107 245.482529,229.116623 
	C243.603180,225.475708 241.283401,221.974716 240.198349,217.498611 
	C248.601730,214.550049 257.165344,213.726410 265.659393,212.731659 
	C287.670380,210.153976 309.463257,212.811508 331.301483,215.396820 
	C348.297363,217.408890 365.386383,218.613510 382.469910,219.852783 
	C403.600677,221.385635 424.711060,221.596603 445.827820,220.546875 
	C454.057159,220.137802 462.424835,220.365417 470.766998,218.321732 
	C471.061401,211.422211 469.974945,204.960724 469.279388,198.778046 
	C467.382904,197.775253 466.619598,198.867172 465.705811,199.518280 
	C460.073914,203.531235 453.930328,206.356689 447.110413,207.695007 
	C445.429535,208.024857 443.518097,208.595856 442.308655,207.387985 
	C438.441040,203.525436 434.604187,205.145584 430.459900,206.719116 
	C428.014435,207.647659 425.282532,207.881790 422.654388,208.248886 
	C420.809998,208.506500 418.434753,208.501907 417.592834,206.860275 
	C415.085602,201.971375 411.755859,203.134293 407.991913,204.820465 
	C406.344269,205.558548 404.508301,206.007660 402.711853,206.258591 
	C396.131958,207.177612 394.061066,205.763321 392.259064,199.324509 
	C390.002655,198.541733 388.627594,200.422318 386.914246,201.214752 
	C382.833405,203.102188 378.875397,205.300781 374.079437,204.413467 
	C370.927246,203.830276 368.102539,202.492966 367.100220,199.439941 
	C365.878906,195.719910 363.895477,196.293884 361.420013,197.660370 
	C357.282867,199.944153 352.838409,201.277420 348.181824,201.883362 
	C346.379364,202.117889 344.513214,202.278564 342.718201,202.084183 
	C334.592529,201.204163 332.215179,197.069595 335.656097,189.299286 
	C331.332977,190.781815 327.332214,192.298111 323.244385,193.524216 
	C315.786743,195.761078 308.210602,196.232864 300.590088,194.365280 
	C299.150421,194.012436 297.698181,193.495743 296.415527,192.766525 
	C294.351654,191.593201 292.435760,190.095322 292.621155,187.365311 
	C292.794495,184.812958 295.156158,184.461563 296.909821,183.745651 
	C304.771576,180.536163 312.670807,177.417450 320.210571,173.485123 
	C321.035309,173.054977 322.212219,172.990433 322.660004,171.292603 
	C316.388611,172.530487 311.021118,175.539490 305.362518,177.611328 
	C294.780182,181.485931 284.052643,184.061783 272.689331,183.403458 
	C268.961548,183.187500 265.454163,182.296921 262.203674,180.526993 
	C259.965179,179.308105 257.890961,177.699371 257.917664,174.850372 
	C257.943237,172.127167 260.105713,170.882950 262.230255,169.828979 
	C272.822876,164.574142 283.409698,159.306732 294.041321,154.131592 
	C316.492584,143.203018 338.349213,131.036591 361.464996,121.493668 
	C374.546722,116.093109 387.809357,111.105911 401.904816,109.061943 
	C409.359192,107.981003 416.868256,108.154549 424.072754,110.882698 
	C428.459137,112.543686 431.802704,115.418884 433.755249,119.750229 
	C434.918091,122.329781 435.944000,124.971390 437.121460,127.543915 
	C440.676270,135.310699 446.590576,140.255692 454.912628,142.293976 
	C463.304626,144.349396 469.127625,142.161850 473.758514,134.868591 
	C476.715576,130.211472 478.944427,125.216965 479.689850,119.641220 
	C480.144684,116.238937 478.765808,114.522095 475.413727,114.473389 
	C472.229492,114.427109 469.063904,114.205597 466.064270,113.143982 
	C463.936981,112.391129 462.686951,113.466484 461.166168,114.604004 
	C457.066803,117.670280 454.566711,116.689705 453.346893,111.714256 
	C451.212067,103.006561 455.697052,97.333252 465.785095,96.891342 
	C469.718414,96.719048 472.720520,95.455376 475.821625,93.302422 
	C486.275909,86.044418 497.806244,88.432159 509.147919,90.114830 
	C519.359253,91.629799 525.435181,98.122398 528.167236,107.658386 
	C529.713257,113.054726 530.302246,118.726761 531.293457,124.279778 
	C531.672302,126.402084 531.706238,128.624390 532.362488,130.650467 
	C533.614441,134.515930 532.497375,139.905624 538.027100,141.291229 
	C545.186707,143.085251 552.453430,144.741669 558.704346,138.664627 
	C562.435791,135.036957 564.213074,130.404236 565.695374,125.601166 
	C569.391174,113.626541 575.554810,109.115776 588.252014,108.637306 
	C598.558167,108.248932 608.433228,110.308289 618.173828,113.292053 
	C641.668579,120.488991 663.567078,131.525070 685.817566,141.682938 
	C706.722717,151.226685 727.399841,161.274445 748.923096,169.407013 
	C751.255127,170.288193 754.077148,170.988831 754.000488,174.108231 
	C753.928223,177.050201 751.648865,178.902481 749.206787,180.050552 
	C740.853149,183.977829 732.039978,185.101410 722.902039,183.890396 
	C719.000610,183.373367 715.086975,182.948074 710.606201,182.412659 
	C711.206665,183.425034 711.340698,183.923843 711.665222,184.153244 
	C713.610901,185.528748 717.021545,185.902771 716.666443,188.987289 
	C716.294434,192.217941 713.433044,193.995178 710.534424,194.978531 
	C700.291809,198.453323 690.203369,196.951843 680.209656,193.700409 
	C677.721252,192.890823 675.452576,191.285797 672.648376,191.481934 
	C673.155884,199.355606 671.383789,201.096710 663.276184,201.399094 
	C656.533569,201.650574 649.971252,201.118149 643.739624,198.298721 
	C641.199219,197.149323 639.571838,196.894394 637.967773,200.301468 
	C635.339172,205.884415 629.980835,204.397324 624.789124,203.568787 
M581.541077,277.696716 
	C622.759583,280.207153 663.592224,275.205353 704.500610,271.495575 
	C722.771301,269.838715 741.088440,270.062927 759.345581,271.902222 
	C766.959290,272.669281 767.952454,271.912079 765.057007,264.788574 
	C760.669434,253.994400 760.664185,243.481491 765.519348,232.863541 
	C766.525513,230.663101 767.937683,228.460587 767.782959,225.734512 
	C766.612366,224.666870 765.129822,224.513031 763.649231,224.283630 
	C744.556030,221.325317 725.457642,222.746719 706.424377,224.633270 
	C682.591064,226.995605 658.755371,229.519836 634.821350,230.127609 
	C601.051636,230.985153 567.244141,232.726013 533.501404,229.363968 
	C528.806946,228.896240 526.391357,230.654343 525.394043,235.227066 
	C522.701904,247.569870 524.789368,259.699890 526.742188,271.843048 
	C527.082886,273.961395 528.638000,274.664673 530.750793,274.781921 
	C547.355530,275.703247 563.955688,276.708221 581.541077,277.696716 
M297.499878,270.584900 
	C316.012787,270.154419 334.415405,271.895691 352.746033,274.032104 
	C372.085205,276.286011 391.421906,278.237000 410.893585,278.596161 
	C431.562469,278.977448 452.105225,276.579010 472.716339,275.706604 
	C484.650085,275.201477 484.653259,275.468048 485.743469,263.653687 
	C485.850098,262.498199 486.255707,261.365845 486.319244,260.211548 
	C486.775452,251.921173 487.635895,243.652832 484.612640,235.531357 
	C482.852997,230.804474 480.291199,228.693497 474.989349,229.254288 
	C460.088318,230.830429 445.112549,231.568344 430.135254,231.870926 
	C408.153473,232.315002 386.228668,231.218857 364.295746,229.551041 
	C346.553375,228.201889 328.879211,226.318558 311.192444,224.491806 
	C298.408936,223.171448 285.585571,222.865814 272.784088,223.543976 
	C267.256042,223.836838 261.545135,224.042603 255.180649,226.413315 
	C264.251831,241.474335 260.977661,256.530090 254.460938,272.255920 
	C269.306427,271.104340 282.890594,270.322693 297.499878,270.584900 
M506.251465,262.681366 
	C508.336670,262.550934 510.851685,263.082855 510.812134,259.697998 
	C510.771545,256.227356 508.243988,256.122101 505.919739,256.461426 
	C503.097229,256.873474 498.242279,254.323410 498.350189,259.881104 
	C498.445038,264.766205 502.914612,261.916687 506.251465,262.681366 
M487.053772,97.472099 
	C486.106750,97.766502 485.116882,97.967430 484.222656,98.377075 
	C482.863983,98.999474 481.261414,99.736664 481.690002,101.562469 
	C482.084259,103.242043 483.755219,103.555313 485.271484,103.713890 
	C486.089508,103.799431 486.937286,103.801270 487.751007,103.689949 
	C490.457397,103.319717 493.884521,102.537674 493.828674,99.674263 
	C493.758240,96.064400 490.043549,97.788544 487.053772,97.472099 
M700.789490,178.321182 
	C693.112061,175.306625 685.434631,172.292068 677.757202,169.277512 
	C687.249207,175.951385 703.247314,182.324417 709.058228,181.926636 
	C705.854004,180.525497 703.637695,179.556366 700.789490,178.321182 
M640.234009,141.871216 
	C635.675964,140.775253 631.117920,139.679306 626.559875,138.583344 
	C633.912109,144.323532 641.916321,145.125488 651.816711,141.948898 
	C647.295044,141.948898 644.174194,141.948898 640.234009,141.871216 
M489.705383,150.258453 
	C487.436340,153.296143 485.167328,156.333832 482.335052,160.125580 
	C487.272339,157.400574 488.891113,152.781158 492.527466,150.133240 
	C496.374084,152.231567 495.033264,157.169266 498.609589,159.329590 
	C496.862396,154.884949 495.115173,150.440323 493.040192,145.161880 
	C491.665619,147.266739 490.874542,148.478043 489.705383,150.258453 
M619.350342,152.916687 
	C623.616821,153.842468 627.832458,155.759201 632.820129,153.630127 
	C628.783630,150.961731 624.559326,150.996246 620.546631,150.402649 
	C619.436646,150.238449 617.602417,150.469681 619.350342,152.916687 
M371.425140,152.446991 
	C370.507507,152.733459 369.589844,153.019943 367.765533,153.589462 
	C373.484497,155.687607 377.831604,155.052704 382.605865,151.835602 
	C378.472168,149.681061 375.348297,152.020432 371.425140,152.446991 
M368.097778,142.657776 
	C369.347504,141.543701 368.751129,140.671875 367.481384,141.017899 
	C363.194794,142.185974 358.686890,140.859573 354.636597,142.348572 
	C358.672058,146.207474 363.119965,144.340988 368.097778,142.657776 
M514.393311,157.864883 
	C511.927826,154.002533 509.462341,150.140167 506.906403,146.136063 
	C504.002014,148.114929 502.954407,150.801514 501.775482,153.409363 
	C503.873627,152.529617 504.075653,149.690292 506.744629,149.531662 
	C508.497498,150.420761 508.955811,152.316330 510.030212,153.735764 
	C511.328918,155.451447 511.912262,157.966370 514.393311,157.864883 
z"/>
<path fill="#000000" opacity="1.000000" stroke="none" 
	d="
M496.430603,558.564575 
	C492.815704,554.400208 489.362305,550.562744 486.080597,546.583618 
	C484.197510,544.300415 482.415924,544.072327 480.194489,546.015442 
	C478.316864,547.657898 476.296844,549.136475 474.393372,550.750732 
	C473.403229,551.590454 471.921814,552.569763 472.814667,554.016602 
	C475.223572,557.920410 472.424530,559.796143 470.023773,561.814453 
	C466.839996,564.491150 463.482300,566.965698 460.363983,569.713867 
	C458.174438,571.643494 456.486023,571.766479 454.518250,569.419373 
	C447.676636,561.259033 440.775787,553.147461 433.817719,545.086182 
	C430.846466,541.643799 431.316833,539.008850 435.006744,536.438049 
	C437.865204,534.446594 440.458313,532.068909 443.129669,529.815796 
	C445.733978,527.619263 448.228088,525.092590 451.601807,528.718994 
	C452.412811,529.590759 453.454987,529.383179 454.298309,528.680481 
	C457.109283,526.338318 459.909698,523.981750 462.648193,521.556274 
	C463.086121,521.168457 463.559418,520.238770 463.384460,519.830261 
	C461.538147,515.520203 464.967010,513.886292 467.391479,511.797638 
	C470.668976,508.974060 473.957367,506.153992 477.375000,503.505249 
	C479.859406,501.579773 482.009949,498.524872 486.026642,501.196136 
	C487.653015,502.277679 488.899414,500.010529 490.107300,499.017700 
	C500.359131,490.591034 511.680023,485.200104 525.352783,486.683350 
	C537.705383,488.023407 547.316284,493.970917 554.660156,504.009430 
	C552.521484,505.882721 550.733276,504.826813 549.024109,504.591034 
	C531.331177,502.150055 516.778015,508.398193 508.811279,521.616455 
	C506.275513,525.823792 505.738647,529.203369 509.715302,533.022888 
	C513.899902,537.042236 517.218872,541.954468 521.336548,546.054321 
	C525.041931,549.743591 524.463989,552.366577 520.639587,555.353088 
	C517.500549,557.804443 514.678711,560.663269 511.727081,563.353210 
	C507.385040,567.310242 503.764587,567.123718 499.837128,562.684509 
	C498.735443,561.439331 497.719360,560.118286 496.430603,558.564575 
z"/>
<path fill="#000000" opacity="1.000000" stroke="none" 
	d="
M568.330200,628.340271 
	C566.379517,630.185608 564.660400,631.760864 563.009399,633.404419 
	C560.295166,636.106445 557.053101,637.291443 553.455627,635.897888 
	C549.469360,634.353760 547.228271,631.043701 546.133179,626.976990 
	C545.504089,624.640686 547.060242,623.256531 548.519592,621.864441 
	C554.300293,616.350342 560.036682,610.788574 565.883423,605.345398 
	C570.301086,601.232727 573.485840,601.266846 577.556885,605.200500 
	C581.984131,609.478333 582.516968,614.255432 578.658875,618.402832 
	C575.490112,621.809204 571.961426,624.880798 568.330200,628.340271 
z"/>
<path fill="#000000" opacity="1.000000" stroke="none" 
	d="
M550.008179,615.024414 
	C548.653687,616.289856 547.576416,617.331238 546.454895,618.322449 
	C539.600708,624.380493 535.425842,623.648071 530.393005,615.087708 
	C538.435364,612.145691 541.721558,605.720093 544.598877,597.988831 
	C546.920349,591.751038 553.345398,587.567200 559.212402,584.261902 
	C562.931274,582.166870 566.110718,585.786194 568.244995,588.739868 
	C570.654907,592.075012 570.385681,595.742310 567.336487,598.698120 
	C561.724182,604.138428 555.963745,609.426025 550.008179,615.024414 
z"/>
<path fill="#000000" opacity="1.000000" stroke="none" 
	d="
M561.440552,639.540283 
	C565.713013,635.792297 569.746704,632.305786 573.606201,628.636108 
	C575.763062,626.585327 577.499084,626.514404 579.461182,628.808899 
	C581.950562,631.719971 584.526855,634.560242 587.144592,637.357117 
	C590.105408,640.520508 589.945068,643.696106 587.010132,646.596863 
	C584.055237,649.517212 580.951965,652.325195 577.667725,654.864258 
	C574.272705,657.488892 569.368103,657.095947 566.289917,653.840759 
	C562.888672,650.243896 559.889526,646.266785 556.872803,642.644470 
	C557.717773,640.158142 559.956543,640.826050 561.440552,639.540283 
z"/>
<path fill="#000000" opacity="1.000000" stroke="none" 
	d="
M521.245239,570.778198 
	C518.932495,569.482910 516.916138,568.388245 514.926086,567.307800 
	C514.676575,564.904175 516.581909,564.110291 517.871155,562.956543 
	C520.961121,560.191406 524.373596,557.739990 527.192566,554.728271 
	C533.215759,548.293213 539.283936,552.136230 542.653503,558.356384 
	C543.888000,560.635132 542.819336,562.631165 541.444397,564.303284 
	C539.765686,566.344788 537.810425,568.166504 535.909790,570.016541 
	C528.920654,576.819519 528.910522,576.809082 521.245239,570.778198 
z"/>
<path fill="#000000" opacity="1.000000" stroke="none" 
	d="
M552.875488,583.711548 
	C540.832397,594.364502 545.230835,594.010864 534.363464,583.478516 
	C531.770691,580.965637 531.352051,579.073242 534.413086,576.665344 
	C537.151733,574.511047 539.684753,572.074646 542.164856,569.617615 
	C545.569458,566.244690 548.983887,565.897522 552.735474,569.019470 
	C556.417908,572.083801 557.420349,576.476807 555.171387,580.625305 
	C554.623047,581.636719 553.817566,582.508789 552.875488,583.711548 
z"/>
<path fill="#000000" opacity="1.000000" stroke="none" 
	d="
M698.159912,243.101776 
	C698.208557,248.238373 698.301208,252.892334 698.268494,257.545410 
	C698.254944,259.466583 698.628967,261.721100 695.761963,262.194336 
	C693.187988,262.619171 692.151184,261.200531 691.644165,258.977570 
	C691.551575,258.571808 691.081055,258.252319 690.765076,257.868774 
	C685.304932,265.023499 683.305237,265.386169 679.347473,260.010406 
	C677.810303,260.064026 677.609802,261.326599 677.303772,262.399628 
	C676.745300,264.357880 675.196350,264.257874 673.697205,264.212646 
	C671.675110,264.151611 671.276123,262.668182 671.296753,261.090485 
	C671.388000,254.114334 671.552246,247.139175 671.687500,240.163589 
	C671.740723,237.417587 673.766174,237.089111 675.806091,236.849472 
	C678.057434,236.584961 680.197510,236.650162 681.037659,239.365219 
	C681.945312,242.298218 682.257385,245.466537 684.184326,248.187622 
	C687.340027,246.262131 687.031555,243.070892 687.530457,240.513489 
	C688.282471,236.658188 690.532532,235.360168 694.008362,234.943924 
	C696.566772,234.637527 697.779236,235.646194 697.913147,238.138977 
	C697.993408,239.632248 698.073364,241.125519 698.159912,243.101776 
z"/>
<path fill="#000000" opacity="1.000000" stroke="none" 
	d="
M567.695923,243.243500 
	C567.806274,240.673279 569.101013,239.891281 570.989014,239.824753 
	C572.978882,239.754654 574.973267,239.659317 576.961365,239.719345 
	C585.553223,239.978806 589.348938,246.870651 584.726196,254.150085 
	C583.178955,256.586517 583.091797,258.668701 584.205444,261.124359 
	C585.006226,262.890045 586.110962,264.604187 585.934937,266.901306 
	C583.214539,268.129181 580.849731,268.623230 579.150024,265.473724 
	C577.987000,263.318634 577.497681,260.772888 575.477844,258.989166 
	C573.742859,259.982819 574.407166,261.617340 574.342102,262.945801 
	C574.233643,265.158752 574.487732,267.355621 571.172424,267.364685 
	C567.680420,267.374237 567.671692,265.068726 567.670349,262.641327 
	C567.666870,256.333771 567.670776,250.026230 567.695923,243.243500 
M578.419128,250.818848 
	C580.151733,248.996689 579.907043,247.521576 577.514343,246.693939 
	C576.053955,246.188766 574.736877,246.684891 574.535217,248.374664 
	C574.242249,250.829407 575.499451,251.735489 578.419128,250.818848 
z"/>
<path fill="#000000" opacity="1.000000" stroke="none" 
	d="
M629.168701,263.827515 
	C624.276550,269.634308 616.271606,269.656494 612.310974,264.153503 
	C611.411011,262.903107 609.803772,261.274445 611.869263,259.910400 
	C613.506897,258.828918 615.386841,257.000153 617.621643,259.054230 
	C618.232361,259.615540 618.738525,260.292450 619.360229,260.839508 
	C620.224731,261.600128 621.220154,261.693848 621.989258,260.779999 
	C622.818604,259.794525 622.289062,258.837219 621.416626,258.247528 
	C619.498230,256.950897 617.367737,255.942886 615.551941,254.524887 
	C611.536743,251.389221 610.586792,247.427185 612.679749,243.570786 
	C614.590393,240.050339 619.893616,237.928253 623.919617,239.194336 
	C627.078125,240.187622 630.386902,242.049332 630.261169,245.396057 
	C630.127808,248.947083 626.433105,249.783676 622.713623,250.260162 
	C627.449890,253.617126 632.456726,256.674744 629.168701,263.827515 
z"/>
<path fill="#000000" opacity="1.000000" stroke="none" 
	d="
M735.971863,250.027802 
	C734.925720,248.967712 733.874756,247.912399 732.834595,246.846527 
	C730.352661,244.303207 728.920837,241.466385 730.357483,237.844452 
	C731.953247,233.821167 735.110596,231.985458 739.246094,231.713837 
	C743.229431,231.452179 746.683105,232.907135 748.455078,236.477234 
	C750.515259,240.627792 745.901428,240.498749 744.330078,242.374619 
	C740.213135,238.463272 740.213135,238.463272 737.137573,239.838318 
	C737.321899,242.252640 739.424622,242.323074 741.019592,242.961319 
	C745.449219,244.733902 749.339600,247.283463 748.879944,252.617935 
	C748.512756,256.879395 745.977905,259.819031 741.275269,260.623322 
	C735.346008,261.637329 732.179993,260.258331 728.987122,254.470993 
	C730.430847,252.127426 733.038635,251.355148 735.744507,250.413788 
	C736.485657,252.813660 737.439148,254.402161 739.847900,254.435699 
	C740.734314,254.448044 741.518433,253.766022 741.398010,252.892136 
	C741.043335,250.317078 738.846252,250.343277 736.947571,250.029190 
	C736.630920,249.976837 736.297546,250.025696 735.971863,250.027802 
z"/>
<path fill="#000000" opacity="1.000000" stroke="none" 
	d="
M703.661865,252.665161 
	C703.630066,247.711273 703.631226,243.218796 703.567871,238.727219 
	C703.534729,236.375488 703.046326,233.893082 706.661194,233.747650 
	C710.619690,233.588394 710.195496,236.378845 710.242737,238.848465 
	C710.318970,242.840683 710.285767,246.835327 710.392334,250.826462 
	C710.447937,252.905869 710.921936,255.266220 713.447021,255.133652 
	C715.673950,255.016769 716.599548,252.912628 716.623535,250.711426 
	C716.674316,246.053162 716.723267,241.393707 716.668701,236.735947 
	C716.638367,234.149902 717.418884,232.653107 720.353577,232.717957 
	C723.359253,232.784363 723.312134,234.780228 723.320557,236.833633 
	C723.341187,241.825027 723.411987,246.817902 723.322571,251.807663 
	C723.209961,258.087280 719.828369,261.542389 713.463562,262.086853 
	C708.236877,262.533966 704.606812,259.213562 703.661865,252.665161 
z"/>
<path fill="#000000" opacity="1.000000" stroke="none" 
	d="
M653.578735,256.518311 
	C655.984314,257.432281 655.244446,258.961548 654.734314,260.329041 
	C653.070557,264.788818 650.050110,267.351410 645.069824,267.538696 
	C640.190125,267.722198 636.538391,265.960754 634.868469,261.312439 
	C632.772888,255.479233 632.839417,249.576859 635.722351,243.960297 
	C637.994080,239.534546 642.003540,238.481674 646.643433,238.650909 
	C650.770203,238.801422 653.488037,240.796097 655.132324,244.457428 
	C655.834961,246.022049 656.584473,247.710449 654.400940,248.668045 
	C652.567566,249.472046 650.624207,251.320816 648.690735,248.746811 
	C647.514771,247.181290 646.536377,245.054672 644.039917,245.924896 
	C641.481201,246.816833 641.051208,249.324066 640.536438,251.569412 
	C640.000732,253.906677 640.459412,256.221375 641.470215,258.362946 
	C643.234741,262.101257 645.803833,262.455688 648.018616,258.984833 
	C649.389221,256.836945 650.777771,255.832947 653.578735,256.518311 
z"/>
<path fill="#000000" opacity="1.000000" stroke="none" 
	d="
M562.385071,259.760071 
	C561.360596,264.898285 558.505493,267.843750 553.599365,268.244385 
	C548.591675,268.653290 544.812256,266.327271 542.786011,261.800659 
	C540.380432,256.426422 540.154785,250.861282 542.766357,245.417099 
	C545.015747,240.728027 549.004761,239.247284 553.907471,239.697174 
	C558.061707,240.078384 561.106873,241.967880 562.492432,246.128082 
	C563.094238,247.935043 563.901245,249.710648 561.392578,250.670044 
	C559.516113,251.387650 557.597229,252.217468 556.277039,249.661362 
	C555.234314,247.642609 553.854431,245.860474 551.200500,246.878464 
	C548.849121,247.780441 548.231995,249.831284 548.281616,252.159943 
	C548.317017,253.821365 548.275513,255.488480 548.401611,257.142883 
	C548.568115,259.326508 549.663513,260.966339 551.818665,261.566925 
	C553.854309,262.134216 555.272644,261.140656 556.405457,259.433441 
	C558.328674,256.535034 560.386719,256.451813 562.385071,259.760071 
z"/>
<path fill="#000000" opacity="1.000000" stroke="none" 
	d="
M600.208923,267.465332 
	C590.854065,267.310181 590.886108,267.310181 590.889832,258.408722 
	C590.891785,253.750031 590.842407,249.087891 590.655334,244.433777 
	C590.536682,241.481140 591.891357,240.077118 594.702393,239.967407 
	C597.860107,239.844177 601.021851,239.822723 604.181946,239.764374 
	C606.578918,239.720093 607.315002,241.065109 607.284851,243.265106 
	C607.255737,245.388153 606.229736,246.279541 604.212341,246.265381 
	C603.879822,246.263046 603.533447,246.232819 603.216797,246.310425 
	C601.231506,246.796906 597.929932,245.025925 597.804443,248.793091 
	C597.700378,251.915268 600.473267,251.578552 602.604370,251.693527 
	C604.114014,251.775009 605.134521,252.321976 605.203491,254.039230 
	C605.268555,255.660202 604.984924,256.933167 603.217957,257.600983 
	C601.628479,258.201660 599.394897,257.522369 598.528320,259.822052 
	C599.282410,262.363098 601.445557,261.443176 603.090698,261.613678 
	C605.065491,261.818329 607.233459,261.456757 607.268555,264.524017 
	C607.304138,267.624023 605.080078,267.319458 603.129333,267.468903 
	C602.302551,267.532227 601.467102,267.481720 600.208923,267.465332 
z"/>
<path fill="#000000" opacity="1.000000" stroke="none" 
	d="
M660.386963,238.523468 
	C664.910950,236.793915 666.471313,238.463898 666.342529,242.713593 
	C666.161926,248.675339 666.265381,254.645889 666.261597,260.612671 
	C666.260071,263.086060 666.108276,265.289307 662.709351,265.342865 
	C659.229614,265.397705 659.089111,263.116577 659.176270,260.681610 
	C659.436340,253.410461 659.769409,246.141953 660.386963,238.523468 
z"/>
<path fill="#000000" opacity="1.000000" stroke="none" 
	d="
M289.651611,247.890289 
	C289.656342,244.075104 289.601807,240.740387 289.690582,237.409515 
	C289.736969,235.669418 289.216187,233.324844 291.762543,232.979904 
	C294.343170,232.630325 297.072693,232.306366 298.778290,235.324234 
	C299.863037,237.243500 299.858795,239.944611 302.364410,240.986328 
	C304.370789,239.845657 303.549194,237.963074 303.694427,236.443039 
	C303.904266,234.246887 305.155518,233.714523 307.064972,233.698151 
	C309.046753,233.681168 310.267883,234.371246 310.266846,236.537704 
	C310.263428,243.703232 310.275024,250.868744 310.267029,258.034271 
	C310.265045,259.814178 309.339020,261.090546 307.575989,260.910645 
	C304.901031,260.637695 301.712097,261.178589 300.486298,257.593079 
	C299.412750,254.452850 298.231476,251.349442 296.571930,246.782715 
	C296.303314,250.948318 296.201172,253.635559 295.936157,256.306641 
	C295.707611,258.609894 295.069855,260.615845 292.022858,260.289581 
	C289.068451,259.973267 289.354797,257.935852 289.459656,255.865372 
	C289.585938,253.370850 289.593079,250.870285 289.651611,247.890289 
z"/>
<path fill="#000000" opacity="1.000000" stroke="none" 
	d="
M418.145630,260.218689 
	C418.110535,262.049683 418.156555,263.545929 418.055908,265.032288 
	C417.918762,267.057709 416.675049,267.934204 414.727631,267.906494 
	C412.735931,267.878113 410.939941,267.375763 410.909943,264.977905 
	C410.820801,257.848785 410.829559,250.717941 410.876831,243.588287 
	C410.881897,242.826370 411.176422,241.836792 411.702942,241.345078 
	C415.199066,238.080322 427.352203,241.133743 429.207703,245.727722 
	C430.083618,247.896362 431.011475,250.325089 429.420074,252.392609 
	C426.304291,256.440552 427.195160,260.298187 429.322998,264.296265 
	C429.695740,264.996613 429.790344,265.844971 430.095428,266.911957 
	C426.157410,268.684509 423.421692,268.127502 421.894318,263.854614 
	C421.286591,262.154541 420.621094,260.378937 419.542877,258.974854 
	C418.730988,257.917572 418.291687,259.019958 418.145630,260.218689 
M417.581085,249.734039 
	C417.386414,251.229355 417.643799,252.486618 419.489319,252.477249 
	C420.895874,252.470108 422.096619,251.904800 422.574921,250.433121 
	C422.906860,249.411804 422.805237,248.301834 421.849670,247.768921 
	C420.149231,246.820572 418.654938,247.128647 417.581085,249.734039 
z"/>
<path fill="#000000" opacity="1.000000" stroke="none" 
	d="
M316.605347,256.274750 
	C316.642517,249.871628 316.661377,243.902664 316.681274,237.933716 
	C316.687775,235.988297 316.897278,234.382767 319.493652,234.171875 
	C332.694275,233.099655 340.643188,243.255554 336.209381,255.545502 
	C334.672363,259.805847 331.759247,262.108612 327.274933,262.076904 
	C324.472290,262.057068 321.668488,261.611084 318.873291,261.286560 
	C315.835144,260.933807 316.588257,258.617096 316.605347,256.274750 
M330.189240,247.112015 
	C329.568604,243.841507 328.516998,241.032272 324.082397,241.488785 
	C322.726135,244.859192 323.532837,248.335846 323.378601,251.714081 
	C323.306335,253.296890 323.020386,255.304504 325.402710,255.507751 
	C327.415283,255.679459 328.936218,254.611084 329.500793,252.653900 
	C329.948792,251.100845 330.071381,249.453918 330.189240,247.112015 
z"/>
<path fill="#000000" opacity="1.000000" stroke="none" 
	d="
M371.991455,256.007385 
	C371.108643,255.022339 370.269714,253.993301 369.334839,253.060440 
	C366.475525,250.207443 365.336182,246.878387 366.985413,243.079102 
	C368.401703,239.816345 371.289825,238.767670 374.700409,238.594208 
	C378.936157,238.378784 382.453125,239.884689 384.332336,243.552612 
	C386.624084,248.025696 381.536011,247.215103 380.472565,249.064728 
	C377.667633,248.416275 377.388458,244.099274 373.912506,245.883377 
	C373.721680,248.562042 375.932892,249.179276 377.581360,249.975067 
	C382.001648,252.108978 385.150604,254.975677 384.200012,260.377563 
	C383.496338,264.376221 380.657471,266.236298 376.871490,266.745483 
	C371.399872,267.481323 367.514832,265.122314 365.058868,259.646637 
	C366.534210,257.474274 368.889008,256.744904 371.703033,256.387085 
	C374.046326,260.908600 374.051483,260.911041 377.428619,258.932037 
	C376.187561,256.813904 374.039429,256.495911 371.991455,256.007385 
z"/>
<path fill="#000000" opacity="1.000000" stroke="none" 
	d="
M348.667419,264.541077 
	C343.081146,263.316406 340.843597,259.775757 340.701813,254.760880 
	C340.565765,249.947556 340.648407,245.127472 340.670044,240.310516 
	C340.679260,238.262054 340.593262,236.233078 343.736511,236.454788 
	C346.521484,236.651215 347.427582,237.979614 347.353180,240.614105 
	C347.236023,244.763336 347.324890,248.918518 347.335327,253.071167 
	C347.341492,255.524704 347.685791,258.144073 350.631378,258.337006 
	C353.464630,258.522552 353.924622,255.827179 354.104370,253.710648 
	C354.454712,249.585739 354.524689,245.434830 354.634583,241.292664 
	C354.688690,239.252365 355.055939,237.725082 357.614807,237.690674 
	C360.166260,237.656357 361.245605,238.793335 361.213593,241.272583 
	C361.155731,245.755508 361.481873,250.270340 361.057800,254.715561 
	C360.341675,262.222870 356.766022,264.978516 348.667419,264.541077 
z"/>
<path fill="#000000" opacity="1.000000" stroke="none" 
	d="
M466.894958,256.288391 
	C467.820007,259.514130 468.603119,262.366455 469.438171,265.407959 
	C467.021149,266.745483 464.973053,266.693359 462.854828,265.271362 
	C459.898468,263.286743 456.960785,263.171417 454.339783,265.849121 
	C452.517853,267.710449 450.549377,267.342804 447.918427,266.741852 
	C449.844940,258.099457 452.122345,249.876709 455.059814,241.831024 
	C455.658173,240.192108 456.940826,239.702118 458.592529,239.677063 
	C460.479095,239.648468 461.753479,240.293564 462.348083,242.195740 
	C463.781067,246.779861 465.280487,251.343246 466.894958,256.288391 
z"/>
<path fill="#000000" opacity="1.000000" stroke="none" 
	d="
M393.783508,262.707764 
	C393.776337,258.753113 393.770050,255.262268 393.776031,251.771439 
	C393.780701,249.064209 394.030182,246.334671 390.065796,246.051910 
	C388.192505,245.918304 387.919281,244.212860 388.011383,242.621719 
	C388.111969,240.883621 389.023895,239.760788 390.821564,239.794968 
	C395.136444,239.876999 399.452454,240.012161 403.761017,240.251831 
	C405.496429,240.348373 406.387665,241.430847 406.351257,243.257599 
	C406.318329,244.908112 405.998474,246.304733 404.004883,246.387985 
	C401.095032,246.509506 401.117706,248.575638 401.097839,250.629730 
	C401.059235,254.618759 401.151825,258.613678 400.956757,262.594696 
	C400.854553,264.680542 400.823242,267.141174 397.663910,267.207703 
	C394.895599,267.266022 393.783508,265.762329 393.783508,262.707764 
z"/>
<path fill="#000000" opacity="1.000000" stroke="none" 
	d="
M283.100525,236.368835 
	C283.080170,243.141815 283.088074,249.453232 282.979492,255.762634 
	C282.942657,257.905548 283.002869,260.215546 279.754883,260.291443 
	C276.601624,260.365082 275.740631,258.661469 275.782928,255.916885 
	C275.880219,249.607269 275.897125,243.296371 276.009186,236.987091 
	C276.043793,235.037842 276.621307,233.355453 278.948456,233.029541 
	C281.224487,232.710785 282.957001,233.147644 283.100525,236.368835 
z"/>
<path fill="#000000" opacity="1.000000" stroke="none" 
	d="
M441.428040,244.709747 
	C441.642273,251.110260 441.870453,257.083832 442.070038,263.058380 
	C442.152283,265.520569 441.990356,267.899414 438.681793,268.022644 
	C435.604614,268.137299 435.217377,265.805939 435.152893,263.623688 
	C434.961517,257.149597 434.928925,250.670212 434.890930,244.192551 
	C434.878662,242.095688 435.751068,240.802139 438.129089,240.674103 
	C440.866608,240.526688 441.700836,241.826996 441.428040,244.709747 
z"/>
</svg>